<svg xmlns="http://www.w3.org/2000/svg" xml:space="preserve" width="85" height="85" viewBox="0 0 84.999637 85.000233"><path fill="#fff" stroke="#000" stroke-width="1.0875" d="M84.456 42.502C84.456 19.365 65.634.544 42.499.544S.543 19.365.543 42.502c0 23.133 18.821 41.954 41.956 41.954s41.957-18.821 41.957-41.954"/><path fill="#e30613" d="m70.089 63.504-.5.535.902.846.477-.51c.29-.31.352-.724.052-1.003-.293-.275-.656-.162-.931.132M17.598 66.07c-.693.67-.683 1.58-.113 2.17.57.588 1.48.628 2.17-.042.699-.673.689-1.584.119-2.173-.57-.588-1.478-.63-2.176.045m51.868-3.889c-.274-.255-.585-.122-.77.077l-.472.504.783.732.455-.489c.236-.251.25-.593.004-.824m10.22-19.702c.146-.254.272-.532.272-.842 0-.823-.651-1.468-1.512-1.468-.86 0-1.513.645-1.513 1.468 0 .867.708 1.462 1.45 1.462.063 0 .126-.007.19-.02l-.95 1.633h.772l1.291-2.233zm-3.81.835c0-.519-.266-.943-.684-1.183a1.06 1.06 0 0 0 .336-.792c0-.651-.513-1.17-1.184-1.17-.664 0-1.17.519-1.17 1.17 0 .324.12.596.329.785-.419.241-.684.671-.684 1.19 0 .816.664 1.45 1.525 1.45.874 0 1.531-.634 1.531-1.45m-4.2 19.37c-.437-.407-.99-.374-1.437-.074a1.09 1.09 0 0 0-.25-1.258c-.452-.423-1.174-.408-1.831.294l-1.17 1.25 3.455 3.232 1.207-1.292c.717-.766.535-1.675.026-2.152m-4.082 4.267-2.004-2.296-.715.625 1.937 2.22c.468.535.338 1.04-.057 1.386-.396.345-.924.396-1.382-.129l-1.939-2.22-.714.624 2.004 2.296c.785.899 1.897.719 2.612.095.715-.625 1.048-1.697.258-2.601m-3.427 5.015-.45-.675-1.572 1.05-2.177-3.257-.79.526 2.629 3.934 2.36-1.578zm-4.958 1.517-.876-.06c.025.713-.296 1.232-.861 1.482-.737.326-1.55.034-1.96-.893-.429-.965-.016-1.705.719-2.031.401-.179.896-.232 1.371.076l.353-.855c-.718-.376-1.474-.308-2.066-.045-1.117.494-1.895 1.79-1.231 3.289.624 1.406 1.992 1.799 3.136 1.292.855-.378 1.432-1.185 1.415-2.255m-7.845 4.563-.16-.797-1.853.37-.768-3.84-.931.186.928 4.638 2.784-.557zm-4.967.932-.045-.81-1.887.107-.223-3.912-.947.054.268 4.722 2.834-.16zm23.467-36.477c0-1.637-.138-3.227-.421-4.802-.082-.453-.244-.99-.244-.99l1.564-5.427c.335-1.163.466-1.484.283-1.783-.073-.12-.207-.311-.749-.453l-4.693-1.17-.145-.261c-4.89-7.528-13.37-12.517-22.997-12.517-9.667 0-18.179 5.03-23.058 12.612l-.095.175-4.694 1.169c-.542.143-.676.335-.749.453-.183.3-.05.62.283 1.785l1.564 5.426s-.14.48-.223.937a28.286 28.286 0 0 0-.43 4.846c0 15.11 12.292 27.403 27.403 27.403 15.11 0 27.403-12.292 27.403-27.403M41.389 79.196l-1.354-4.892-.9-.091-2.316 4.519 1.022.104.502-1.025 1.737.176.285 1.105 1.024.104zm-6.612-5.69-1.649-.46-1.27 4.555 1.704.476c1.01.282 1.732-.3 1.92-.973.16-.575-.125-1.049-.598-1.308a1.09 1.09 0 0 0 1-.803c.167-.596-.18-1.229-1.107-1.488m-3.418-1.001L27.8 70.88l-.337.739 1.347.615-1.628 3.564.865.395 1.626-3.565 1.347.615.338-.74zm-6.537-3.59c-1.159-.738-2.623-.417-3.388.784-.76 1.194-.43 2.657.73 3.393 1.158.738 2.622.417 3.382-.778.765-1.2.434-2.663-.724-3.4m-4.495-.03c1.024-.99 1.043-2.49.089-3.475-.954-.987-2.453-1.017-3.477-.028-1.018.985-1.038 2.484-.083 3.47.954.988 2.454 1.018 3.471.033m-5.128-6.36.925-.681 1.14 1.544.654-.483-1.703-2.308-3.807 2.808.564.764 1.573-1.16.91 1.232.653-.483-.91-1.232zm-4.01-19.198c0-.52-.266-.943-.683-1.184a1.06 1.06 0 0 0 .335-.791c0-.652-.513-1.171-1.184-1.171-.665 0-1.17.519-1.17 1.17 0 .324.12.596.328.786-.417.24-.683.67-.683 1.19 0 .817.665 1.449 1.525 1.449.873 0 1.532-.632 1.532-1.45M6.65 40.18l-.696.434v4.11h.696V40.18zm6.252-19.531 4.817 4.036 1.51-1.802c.895-1.068.586-2.262-.124-2.856-.608-.51-1.34-.425-1.912.006.233-.591.06-1.246-.423-1.651-.63-.528-1.587-.457-2.41.524l-1.458 1.743zm5.376-5.775 3.947 4.891.98-.792-1.559-1.933.454-.366 2.63 1.07 1.189-.96-2.98-1.154a1.839 1.839 0 0 0-.161-2.055c-.63-.78-1.706-.957-2.686-.166l-1.814 1.465zm6.723-4.694 2.713 5.669 3.507-1.68-.466-.972-2.369 1.134-.656-1.37 1.835-.879-.465-.974-1.836.88-.66-1.38 2.3-1.1-.465-.974-3.438 1.646zm6.96-2.863 1.403 6.126 1.229-.282-.883-3.854 3.761 3.195 1.163-.266-1.404-6.126-1.227.28.888 3.883-3.766-3.223-1.164.267zm7.97-.444 1.967.01-.029 5.206 1.262.008.028-5.207 1.968.011.004-1.079-5.196-.028-.005 1.08zm6.915 5.491 1.24.238.49-2.551 1.998.384.204-1.06-1.997-.384.288-1.5 2.504.48.204-1.059-3.743-.72-1.187 6.172zm7.554 2.432c1.682.705 3.528-.044 4.255-1.78.73-1.744-.03-3.585-1.714-4.29-1.682-.705-3.528.044-4.259 1.788-.727 1.736.034 3.577 1.718 4.282m8.155-2.964-3.79 5.015 1.007.76 1.497-1.982.465.351-.399 2.81 1.22.922.396-3.172a1.835 1.835 0 0 0 1.955-.654c.604-.801.515-1.886-.492-2.646l-1.86-1.404zm6.07 5.01-4.476 4.411 1.462 1.484c1.569 1.591 3.523 1.194 4.619.114 1.102-1.085 1.413-2.947-.042-4.424l-1.562-1.584zm14.309 25.658c0 22.293-18.137 40.429-40.43 40.429S2.079 64.791 2.079 42.499c0-22.294 18.137-40.431 40.428-40.431 22.293 0 40.429 18.137 40.429 40.431m-28.08-28.786c1.005.42 2.137-.007 2.631-1.188.499-1.188.009-2.294-.995-2.715-1.004-.422-2.137.006-2.634 1.195-.495 1.181-.005 2.286.999 2.708m8.998 1.456c.271-.358.225-.836-.21-1.164l-.732-.552-.989 1.31.693.524c.442.334.95.264 1.239-.118m14.598 25.643c-.494 0-.811.373-.811.823 0 .443.317.823.81.823.488 0 .81-.38.81-.823 0-.45-.322-.823-.81-.823m-4.102 1.69a.79.79 0 0 0-.815.81c0 .443.328.804.815.804.5 0 .83-.361.83-.803 0-.45-.33-.811-.83-.811m0-.64c.311 0 .52-.227.52-.525s-.209-.525-.52-.525c-.303 0-.506.228-.506.525s.203.525.506.525m-5.056-19.868c.781-.77 1.02-1.903.127-2.809l-.677-.686-2.939 2.896.652.66c.911.925 2.046.717 2.837-.06m-47.46-7.569c-.281-.348-.756-.42-1.18-.077l-.713.575 1.032 1.278.675-.545c.432-.348.487-.859.186-1.23M9.66 42.516a.79.79 0 0 0-.816.81c0 .443.329.804.816.804.5 0 .83-.361.83-.804 0-.45-.33-.81-.83-.81m24.367 33.561-.706-.196-.332 1.19.671.188c.409.114.805-.022.916-.417.108-.388-.16-.656-.549-.765m-9.674-6.421c-.692-.44-1.585-.268-2.106.552-.517.813-.295 1.695.396 2.135.692.44 1.585.268 2.103-.546.52-.819.299-1.701-.393-2.141M9.66 41.877c.31 0 .52-.228.52-.525s-.21-.525-.52-.525c-.304 0-.507.227-.507.525s.203.525.507.525m5.465-22.195-.589.703 1.091.914.57-.681c.294-.351.288-.806-.056-1.094-.38-.32-.784-.12-1.016.158m19.362 54.584-.665-.185-.288 1.03.644.18c.332.093.642-.052.732-.377.1-.36-.16-.574-.423-.648m4.271 2.697 1.087.11-.395-1.521-.692 1.411zM18.293 22.324l-.594.71-1.26-1.055.625-.746c.344-.411.816-.589 1.227-.245.417.35.364.903.002 1.336"/><path fill="#140e0c" d="M21.518 28.28c4.566-6.716 12.267-11.135 20.983-11.135 8.775 0 16.523 4.482 21.077 11.276l.961-.402C59.811 20.91 51.656 16.132 42.5 16.132c-9.139 0-17.208 4.675-21.94 11.758l.958.389zm-4.957 9.458a26.636 26.636 0 0 0-.428 4.764c0 14.538 11.828 26.366 26.367 26.366 14.538 0 26.366-11.828 26.366-26.366 0-1.627-.148-3.231-.431-4.776l-1.021.001c.289 1.53.44 3.162.44 4.775 0 13.979-11.373 25.355-25.353 25.355-13.981 0-25.355-11.375-25.355-25.355 0-1.627.153-3.218.447-4.76l-1.032-.004z"/><path fill="#e8e4d9" d="M23.65 43.78v13.395l.464-.081V43.813l-.464-.033zm.435-14.39v-3.086l-.464.425v2.487l.464.174zm14.524-5.01v3.342l.464-.24V25.1l-.464-.72zm0 35.503v6.937l.464.074v-6.62l-.464-.391zm.464-37.594v-4.16l-.464.099v3.806l.464.255zm-7.468 21.088v-.975l-.464.295v1.623l.464-.943zm0-10.92v-2.004l-.464-.546v2.347l.464.203zm-.464 19.949v11.772l.464.265V51.652l-.464.754zm.464-25.56v-6.548l-.464.261v5.837l.464.45zm29.522 16.967v13.28l.465.082V43.78l-.465.033zm.494-14.596V26.73l-.465-.426v3.087l.465-.174zM46.169 25.1v2.381l.463.241v-3.341l-.463.72zm0 35.172v6.621l.463-.074v-6.937l-.463.39zm.463-38.239v-3.806l-.463-.1v4.162l.463-.256zM54.1 44.321v-1.623l-.464-.295v.975l.464.943zm0-12.067v-2.347l-.464.546v2.004l.464-.203zm-.464 19.4v12.79l.464-.265V52.407l-.464-.753zm0-24.807V20.3l.464.261v5.837l-.464.45z"/><path fill="#140e0c" d="m49.874 34.747 15.21-6.164-2.635 4.211-12.57 2.912-.005-.96zm.02 1.653-.004.666h18.356l-5.932-3.237-12.42 2.57zm-34.793-5.383 1.455 5.062 5.163-2.74s-2.732-4.506-2.737-4.473l-3.15.82c-.61.163-.79.253-.875.382-.096.146-.035.297.144.95m7.592 2.81-5.933 3.23h18.358l-.007-.658-12.418-2.571zm-2.51 5.187c-.009.16.152.308.391.56l3.427 3.4 2.758-2.652-5.19-2.173-1.016.51c-.266.151-.362.247-.37.355m14.988-4.268-15.21-6.164 2.633 4.211 12.572 2.912.005-.96zm-12.397 3.01 4.766 1.905 7.633-1.252-.017-.653H22.774zm5.185 2.727c.076-.03-3.06 2.82-3.06 2.82l2.257.127s.69.045 1.127-.054c.28-.062 1.139-.546 1.139-.546s5.758-3.09 5.756-3.115l-.012-.675s-7.283 1.473-7.207 1.443m21.92-1.443-.014.675c0 .025 5.757 3.115 5.757 3.115s.86.484 1.14.546c.436.1 1.126.054 1.126.054l2.258-.127s-3.137-2.85-3.06-2.82c.076.03-7.207-1.443-7.207-1.443m14.604-.38-1.018-.511-5.189 2.173 2.76 2.651 3.426-3.398c.24-.253.4-.401.39-.56-.007-.109-.103-.205-.37-.356m-8.52 12.52c-.096-.129-2.743-7.145-2.743-7.145-.449-1.121-.833-1.314-1.634-1.762l-1.82-1.16-.086.109 2.086 2.845.005 4.134 6.787 8.62c.929 1.153.96 1.537 2.307 1.537l.833-.384-1.57-.258s-4.069-6.408-4.165-6.536m-26.851 0c-.096.128-4.166 6.536-4.166 6.536l-1.57.258.833.384c1.346 0 1.379-.384 2.307-1.538l6.777-8.619.016-4.134 2.084-2.845-.086-.11-1.817 1.161c-.801.448-1.187.64-1.635 1.762 0 0-2.647 7.016-2.743 7.145m40.891-21.124c-.085-.129-.266-.219-.875-.383l-3.15-.82c-.005-.032-2.736 4.474-2.736 4.474l5.163 2.74 1.455-5.062c.179-.652.238-.803.143-.949m-20.128 7.69-.017.652 7.634 1.252 4.765-1.905H49.874zm-.194-4.065 4.855-5.264 3.124-3.797.169-1.033-.314-.288-.384 1.178-8.146 7.401c.023.072.696 1.803.696 1.803m-19.176-5.264 4.854 5.264s.674-1.731.697-1.803l-8.147-7.401-.385-1.178-.311.288.168 1.033 3.124 3.797zm5.045-7.041.731.856 2.276 1.25 2.286 3.312-.647.895s-1.307.434-1.579.776c-.336.43-.408 2.091-.408 2.091l-1.008.58-1.203 3.553v5.625l.857.57-2.54 3.558v8.586l2.836 4.805 3.878 2.948 1.493 1.874 1.49-1.874 3.877-2.948 2.836-4.805v-8.586l-2.49-3.588.807-.54V34.69l-1.202-3.553-1.01-.58s-.069-1.662-.407-2.09c-.27-.343-1.578-.777-1.578-.777l-.612-.844 2.325-3.363 2.273-1.25.732-.856-1.121.353-2.403 1.344-2.318 3.282-1.148-.3-1.189.289-2.309-3.27-2.403-1.345-1.122-.353zm4.646 6.634.35 1.606-1.568.604 1.218-2.21zm4.649 0 1.217 2.21-1.547-.625.33-1.585zm-2.336 6.343 4.706 2.051-1.568 3.525v-2.756l-3.138-1.603-4.448.496-.038-.142 4.486-1.571zM36.875 50.33l3.021 1.076h5.246l3.024-1.076.032.087-2.742 2.097h-5.873l-2.742-2.097.034-.087z"/><path fill="#fbb800" d="m49.035 54.292-3.829 1.344h-5.354l-3.78-1.344 1.338 2.331 3.148 1.138-2.21-.054 3.01 2.288h2.341l3.01-2.288-2.208.054 3.147-1.138 1.387-2.331zM36.841 34.59l3.204-1.698h4.97l3.203 1.698-.352-.994-2.308-1.922 2.051.705-.225-.705s-2.21-1.09-2.242-1.185h-5.226c-.031.096-2.242 1.185-2.242 1.185l-.225.705 2.052-.705-2.309 1.922-.35.994zm12.948 10.12-.008-.008-4.512.553 3.43-1.896-1.353-1.893-1.948 1.3H39.66L37.764 41.5l-1.347 1.86 3.372 1.896-4.512-.553-.006.008v2.413l2.914 1.09h8.686l2.918-1.09v-2.413z"/></svg>