<svg xmlns="http://www.w3.org/2000/svg" width="283.253523" height="353.040623" viewBox="0 0 69.391251 86.253372"><clipPath id="a"><path d="M230.984 789.567h.233v1.427h-.233z"/></clipPath><clipPath id="b"><path d="M200.232 736.253h194.811v69.637H200.232z"/></clipPath><g fill="#fff"><path d="M22.028 68.3S12.376 63.46 7.673 56.033c.025 6.38-.29 14.34-.29 14.34l14.774 2.903zM47.536 68.432s9.652-4.46 14.355-11.885c-.025 6.38.291 13.826.291 13.826l-14.775 2.904z"/><path d="M47.64 77.745H21.962v-11.72H47.64z"/><path d="M42.441 66.893c0 4.153-3.411 7.523-7.619 7.523-4.206 0-7.617-3.37-7.617-7.523 0-4.155 3.411-7.524 7.617-7.524 4.208 0 7.619 3.37 7.619 7.524M4.124 70.82V59.828l-.656-.247v-1.486l.656-.291v-1.036l-.656-.245V54.75l2.156-2.045v-.484s.073-.425.625-.425h.637s.497.073.497.425v.452l2.211 2.083-.021 1.773-.657.232v1.034l.67.288v11.68zM65.697 70.82V59.828l.657-.247v-1.486l-.657-.291v-1.036l.657-.245V54.75l-2.157-2.045v-.484s-.072-.425-.625-.425h-.637s-.496.073-.496.425v.452l-2.212 2.083.02 1.773.658.232v1.034l-.67.288v11.68zM34.154 86.253c-5.338 0-8.751-1.83-12.346-3.758-1.905-1.02-3.874-2.077-6.187-2.853-6.545-2.197-10.855.495-11.035.611l-.873-1.345c.205-.133 5.104-3.24 12.418-.786 2.44.82 4.47 1.909 6.433 2.961 3.713 1.99 7.214 3.872 12.979 3.525 5.393-.323 9.099-2.156 12.683-3.928 1.527-.757 2.97-1.47 4.5-2.045l.352-.137c1.918-.758 7.756-3.06 12.798.778l-.972 1.275c-4.322-3.293-9.346-1.309-11.238-.563-.143.057-.268.107-.375.147-1.454.547-2.864 1.243-4.355 1.98-3.554 1.757-7.582 3.75-13.295 4.093-.512.03-1.007.045-1.487.045"/><path d="m62.749 83.357-1.134-.73c-.254-.163-.922-.267-1.601-.158-.12.018-.246.047-.371.075-.57.126-1.278.28-1.828-.162-.225-.181-.496-.531-.496-1.173-.001-.49.21-.924.594-1.223 1.252-.974 4.326-.294 5.238-.062.607.166 1.277.16 1.408.04.311-3.46 1.717-5.963 2.509-7.125-5.683-3.435-14.38-1.57-17.64.512-4.858 3.104-8.91 5.029-14.083 5.051-4.409.004-8.15-1.812-12.099-3.745-2.211-1.082-4.496-2.201-7.008-3.045-5.283-1.773-11.292.223-13.574 1.134.849 1.168 2.142 3.459 2.282 6.739.124.152.79.191 1.389.059.939-.192 4.041-.723 5.245.31.369.317.56.76.536 1.247-.031.641-.317.98-.552 1.15-.57.415-1.27.226-1.834.073-.125-.033-.247-.067-.365-.09-.674-.143-1.346-.072-1.609.08l-1.165.673-.045-1.855c-.46.089-1.763.269-2.568-.346a1.586 1.586 0 0 1-.628-1.234C3.17 75.36.835 73.03.811 73.007L0 72.215l1.02-.498c.341-.166 8.466-4.056 15.725-1.62 2.613.878 4.948 2.022 7.203 3.127 3.76 1.84 7.313 3.58 11.337 3.58h.054c4.787-.02 8.612-1.85 13.23-4.8 3.817-2.435 13.802-4.525 20.109-.018l.713.511-.573.663c-.023.025-2.288 2.706-2.67 6.919a1.581 1.581 0 0 1-.685 1.202c-.825.57-2.104.338-2.583.223z"/><path d="M11.49 79.856s-.798-.8-1.13-1.387C9.702 77.305 4.57 79.6 4.57 79.6l1.4.302M57.724 80.162s.817-.781 1.162-1.36c.687-1.147 5.762 1.269 5.762 1.269l-1.406.269"/><path d="M3.972 79.902s-.11-3.157-.818-4.557c-.71-1.402-.993-2.812-.993-2.812s4.304-2.166 7.109-2.218c2.804-.053 9.784 1.16 11.957 2.358 2.175 1.2 8.037 4.415 11.077 5.072 3.04.656 8.063-.125 11.205-1.418s5.242-3.519 6.515-4.084 5.378-2.05 8.14-2.297c2.76-.25 6.086.881 7.96 1.235s1.597 1.062 1.597 1.062l-2.254 7.173s-3.603-1.225-6.02-1.295c-2.416-.071-6.526 1.746-7.8 2.217-1.27.473-6.87 2.809-8.672 3.518-1.803.707-7.891 2.335-11.361 1.557-3.47-.778-10.21-4.2-11.972-5.075-1.763-.873-8.14-2.975-8.985-2.573-.845.4-6.685 2.137-6.685 2.137M39.153 53.314c.014.009.029.014.041.02l-.212.035zm24.925-41.85c-.128-.39-.791-.691-3.48-.691-1.048 0-2.024.042-2.034.042a.503.503 0 0 0-.122.021 14.392 14.392 0 0 0-4.688 1.129c1.904-2.296 4.869-3.731 6.661-4.439.093-.037.358-.158.414-.245.086-.137.234-.262.113-.486-.21-.381-1.024-.48-1.57-.48-.584 0-1.415.08-2.455.236a14.4 14.4 0 0 0-1.514.255 14.195 14.195 0 0 0-5.65 2.675 16.05 16.05 0 0 0-.665.56l1.314-2.236a25.418 25.418 0 0 1 2.292-3.19.487.487 0 0 0 .108-.222c.032-.163.217-.418.112-.547a.612.612 0 0 0-.485-.215c-.237 0-1.022.08-4.034 2.368-2.833 1.98-5.262 4.545-7.035 7.431-.711 1.275-1.955 3.641-2.368 5.308-.024-.17-.048-.337-.065-.5a21.975 21.975 0 0 1-.127-2.184c-.013-.984.03-1.865.07-2.43.018-.238-.027-.798-.257-.853-.231-.057-.583.404-.676.623-1.473 3.371-1.86 6.175-1.94 7.847l-.54 4.919c-.06.34-.317 1.983-.317 1.983-.408-.712-.696-1.24-1.008-2.01a.609.609 0 0 0-.04-.075l-.463-.742a.305.305 0 0 0-.04-.056c-.702-.835-1.412-1.266-2.234-1.762-1.153-.7-2.588-1.57-4.721-4.037-1.176-1.362-2.54-4.113-2.98-6.007-.872-3.751-.791-8.236.211-12.265.092-.269.155-.76.035-.928a.544.544 0 0 0-.421-.215c-.314 0-.597.277-2.565 3.403l-.015.025a19.374 19.374 0 0 0-2.852 8.371 26.205 26.205 0 0 1-1.13-3.509c-.63-2.568-.838-5.176-.6-7.537.015-.148.047-.541-.058-.646A.565.565 0 0 0 15.872 0c-.434 0-1.1.559-2.487 4.263-1.318 3.525-1.743 6.756-1.331 10.29-1.497-1.95-2.172-4.692-2.78-7.16-.151-.613-.299-1.214-.455-1.79-.077-.288-.286-.987-.549-.854a.261.261 0 0 0-.06.035.155.155 0 0 0-.027.022c-.013.01-.025.019-.035.029-.054.051-.244.661-.276.728-.084.157-.14.387-.172.722l-.002.048c0 .115-.008.23-.014.345-.007.127-.016.253-.016.38-.179 1.853-.32 6.646 2.14 11.655l.056.13.1.227c.268.564.57 1.083.86 1.581l.283.49c.34.597.637.96.943 1.307-1.388-.284-3.441-.693-4.431-.842a.487.487 0 0 0-.339.891c.827.543 2.334 1.902 3.917 3.374l-.023.007 2.808 2.61.256.24c.916.863 1.867 1.755 2.776 2.58l-1.925-.19a.488.488 0 0 0-.355.866l4.48 3.626-.004.001 1.96 1.56c.014.014.025.032.042.044l3.363 2.706a.497.497 0 0 0 .293.108l.862.022c-1.826.759-3.496.784-5.451.129a13.614 13.614 0 0 1-4.17-2.275c-.174-.14-.617-.4-.796-.267-.179.133-.046.626.037.833.382.934 1.084 1.757 1.794 2.497-2.317-.307-4.432-.945-6.841-2.048-.199-.091-.561-.326-.704-.162-.141.165-.027.687.09.87 1.09 1.692 1.964 2.852 2.831 3.756.913.949 2.117 1.92 2.709 2.275.113.07.416.25 1.859.25.545 0 1.151-.028 1.66-.076l.186-.018c-1.439.509-2.766.698-3.91.554-.247-.036-.811-.011-.87.23-.057.244.409.631.644.715 1.716.612 3.395 1.031 5.002 1.242.529.149 2.035.543 3.658.685.11.01.212.01.311.008.134.014.268.024.396.037.623.057 1.212.113 1.839.113.516 0 1.026-.039 1.556-.121a.488.488 0 0 0 .052.185l.282.555a.489.489 0 0 0-.35.712l.609 1.138c.014.026.03.052.049.075.005.003.018.022.045.053a.488.488 0 0 0-.269.561c.315 1.268.927 1.713 1.376 2.04.306.22.491.354.588.702.065.23.17.487.28.764.232.58.582 1.456.363 1.803-.293.469-.495.604-.831.827-.209.14-.469.315-.786.598-.761.685-.815 1.594-.158 2.704l.04.065a.49.49 0 0 0 .902-.15c.153-.782 1.44-1.402 1.69-1.419.443-.03.862-.058 1.15-.346.468-.467 3.01-.496 3.01-.496s.297.01.766.106c.09.045.182.085.265.138.081.052.167.08.264.073.055 0 .907.344.977.425.126.149 1.568.947 1.735 1.037.098.05.936 1.17 1.058 1.17.195.287.268.207.273-.087.547-.322 1.038-1.041 1.227-1.807.188-.764.075-1.49-.325-2.101a.441.441 0 0 0-.08-.094 15.17 15.17 0 0 0-.567-.459c-.355-.279-.947-.745-1.067-.882-.36-.412-.535-.86-.709-1.368a.492.492 0 0 0 .446-.597l-.065-.282c-.1-.43-.213-.916-.305-1.45l-.006-.027a.52.52 0 0 0 .061.004c.002 0 .004-.002.008 0a.489.489 0 0 0 .421-.738l-.54-1.461.103.115c.133.14.456.379.64.312.18-.062.187-.417.202-.61.076-.975.821-1.962 1.625-2.541.045.133.089.221.1.243.084.163.091.52.275.52.003 0 .006 0 .01-.002.185-.002.325-.26.591-.535.337-.35.619-.652.973-.756l1.686.679c.1.301.309.791.676 1.089.317.255.624.448 1.182.802l.187.119a1.58 1.58 0 0 1-.17.072c-.192.069-.746.252-.747.457 0 .203.55.388.742.46.374.14.786.215 1.19.215.83 0 1.556-.298 1.995-.814.361-.426.5-.966.401-1.559-.073-.444-.248-1.539-.305-1.891l.457-1.494a.515.515 0 0 0 .02-.145c-.003-.707-.205-1.497-.6-2.349l-.018-.056a.46.46 0 0 0-.084-.156c-.021-.045-.042-.084-.061-.12a5.476 5.476 0 0 0-.402-.72c-1.21-1.993-2.93-3.616-3.002-3.685-.146-.136-.433-.375-.615-.291-.181.085-.218.476-.207.676l.006.106c-.117-.28-.567-.749-.667-.899-.218-.325-.38-.657-.438-.896 1.451-6.714 5.893-11.184 5.936-11.229a.483.483 0 0 0 .142-.298c.962-9.607 11.933-13.835 12.045-13.877.04-.015.325-.103.36-.128.38-.282.442-.503.41-.6"/></g><path fill="#292d6b" d="M34.162 85.732c-5.234 0-8.597-1.804-12.14-3.704-1.923-1.03-3.908-2.093-6.26-2.883-6.794-2.283-11.38.63-11.427.66l-.373-.574c.197-.128 4.91-3.121 12.02-.735 2.405.807 4.416 1.886 6.363 2.929 3.772 2.022 7.333 3.933 13.224 3.58 5.484-.33 9.231-2.183 12.856-3.977 1.518-.751 2.952-1.46 4.462-2.027l.357-.139c2.056-.811 7.516-2.964 12.35.716l-.415.545c-4.526-3.447-9.726-1.397-11.684-.623-.14.053-.263.103-.368.142-1.477.555-2.897 1.256-4.398 2.001-3.514 1.738-7.496 3.707-13.119 4.044-.498.03-.98.045-1.448.045"/><path fill="#1b458f" d="m33.45 80.332-.155-.005-.037 1.14.141.005c.419.012.653-.164.666-.564.014-.37-.197-.562-.615-.576M36.9 81.843l.776-.107-.56-1.278zM25.459 79.817l.263-1.37-.962 1.02zM11.533 72.9l-.253-.015-.069 1.138.259.016c.406.024.64-.172.663-.547.02-.357-.194-.568-.6-.592M44.432 79.704l.714-.323-.901-1.067z"/><path fill="#1b458f" d="M63.196 76.77a.6.6 0 0 1-.647-.548.6.6 0 0 1 .55-.647.598.598 0 0 1 .096 1.194m-.937-3.385c-.207-.202-.456-.365-.787-.401-.582-.063-1.008.331-1.085 1.054-.08.736.285 1.202.872 1.266.295.031.569-.044.888-.183l.05 1.034a2.56 2.56 0 0 1-1.232.151c-1.292-.14-1.975-1.05-1.83-2.397.142-1.31 1.052-2.099 2.363-1.956.429.046.769.17 1.051.355zm-3.964 2.786a.6.6 0 0 1-.096-1.193.6.6 0 0 1 .096 1.193m-1.763.27-1.224.257-.874-4.16 2.629-.55.214 1.012-1.405.294.14.67 1.012-.211.38.97-1.181.247zm-5.463 1.914-1.606-3.935 2.595-1.059.375.918-1.455.592.23.565 1.101-.447.513.847-1.244.508.257.627 1.505-.613.375.917zm-1.514.814c-1.168.57-2.231.161-2.823-1.058-.578-1.186-.227-2.338.96-2.913a2.33 2.33 0 0 1 1.08-.26l.326 1.067c-.283-.06-.58-.066-.878.08-.527.256-.678.818-.361 1.471.323.665.881.865 1.413.607.266-.13.458-.34.655-.627l.59.85a2.536 2.536 0 0 1-.962.783m-3.221 1.556-.536-.59-1.219.551.103.737-1.112.502-.42-4.494 1.285-.58 2.979 3.17zm-5.785 2.149-1.255-4.06 1.206-.374.94 3.036 1.148-.355.481.974zm-2.115.489-.346-.718-1.325.183-.11.736-1.21.166.875-4.431 1.397-.191 1.957 3.887zm-4.997-.972-.198-.006-.042 1.275-1.255-.042.142-4.25 1.471.048c1.097.038 1.753.535 1.719 1.515-.034 1.003-.766 1.497-1.837 1.46m-3.873.81-2.506-.812 1.305-4.041 1.201.387-.977 3.024 1.143.369zm-3.172-1.217-1.228-.398.12-.787-1.194-.601-.508.545-1.09-.55 3.227-3.153 1.261.634zm-5.754-2.816 1.486-2.838-1.01-.53.488-.926 3.028 1.586-.333 1.008-1.054-.552-1.486 2.838zm-1.303-3.61c.763.673.998 1.143.724 1.782-.395.923-1.219.985-2.011.645a3.933 3.933 0 0 1-1.35-.945l.575-.874c.361.423.78.777 1.17.944.226.098.406.08.48-.089.07-.163.009-.283-.444-.7-.677-.623-.927-1.04-.634-1.725.344-.802 1.144-.935 1.914-.605.566.242.869.487 1.178.833l-.573.865c-.312-.394-.666-.68-.961-.806-.231-.1-.379-.07-.436.067-.067.153-.01.27.368.608m-3.838 1.413-1.218-.33.39-1.438-.711-2.925 1.339.19.345 1.785 1.17-1.33 1.267.346-2.185 2.24-.397 1.462zm-3.434-.655-.699-1.406-.191-.011-.079 1.315-1.249-.075.255-4.244 1.624.098c1.095.066 1.693.59 1.639 1.5-.035.572-.318.962-.813 1.18l.854 1.52zm-3.925.13c-1.278.243-2.195-.428-2.449-1.76-.247-1.296.393-2.316 1.689-2.563.424-.08.784-.062 1.11.033l.037 1.117c-.257-.133-.543-.217-.871-.155-.575.11-.869.612-.732 1.326.138.726.625 1.067 1.206.956.29-.055.531-.207.795-.434l.35.975a2.544 2.544 0 0 1-1.135.504m40.862-3.766c-4.813 3.072-8.731 4.905-13.657 4.925-6.66.025-11.821-4.388-18.85-6.749C9.46 68.494 1.37 72.435 1.37 72.435s2.582 2.523 2.777 7.084c0 0 4.693-3.06 11.724-.7 7.03 2.361 10.672 7.071 19.717 6.526 7.878-.472 12.358-4.12 17.418-6.023 1.57-.59 7.357-3.282 12.364.517.456-4.445 2.843-7.202 2.843-7.202-5.991-4.282-15.678-2.217-19.215.04"/><path fill="#c4122e" d="M8.611 81.025c.355 0 .7.042.985.1.138.03.284.07.43.108.313.084.74.202.873.105.049-.036.081-.143.089-.29a.382.382 0 0 0-.144-.336c-.484-.417-1.938-.39-3.183-.24l.017.666c.293-.081.617-.113.933-.113m51.302-.416c-.573 0-1.057.074-1.305.269a.385.385 0 0 0-.16.33c0 .149.028.256.076.294.126.102.56.008.875-.063.147-.031.295-.064.436-.086.541-.088 1.3-.096 1.915.104l.046-.664c-.622-.108-1.3-.184-1.883-.184m2.426 1.929-.471-.304c-.387-.249-1.198-.344-1.93-.226-.127.02-.26.051-.395.08-.523.114-1.06.232-1.435-.068-.214-.172-.322-.445-.322-.812a1.038 1.038 0 0 1 .414-.853c1.134-.885 4.46-.073 4.836.022.33.09 1.348.277 1.784-.027.123-.083.186-.202.203-.373.347-3.822 2.077-6.43 2.71-7.27-5.77-3.847-14.955-1.943-18.563.255-4.107 2.505-8.561 4.95-13.827 4.972h-.06c-4.284 0-7.95-1.796-11.832-3.696-2.223-1.09-4.523-2.215-7.065-3.069-5.942-1.994-12.752.641-14.465 1.381.718.857 2.4 3.24 2.56 6.954a.468.468 0 0 0 .183.383c.425.323 1.447.186 1.774.112.385-.079 3.745-.73 4.837.209.263.224.391.525.375.871-.019.366-.14.634-.36.794-.39.285-.922.14-1.439 0-.132-.035-.265-.071-.39-.098-.726-.152-1.54-.096-1.938.133l-.484.281L7 80.57c-.15.025-.292.051-.425.079-.15.034-1.568.336-2.313-.233a1.13 1.13 0 0 1-.445-.882c-.19-4.378-2.655-6.835-2.68-6.86l-.337-.33.423-.205c.335-.165 8.294-3.974 15.374-1.599 2.582.869 4.9 2.005 7.145 3.103 3.81 1.866 7.41 3.628 11.54 3.628h.057c4.598-.018 8.57-1.88 13.486-4.875 3.8-2.317 13.595-4.307 19.58-.028l.295.212-.238.274c-.022.029-2.383 2.807-2.78 7.185a1.13 1.13 0 0 1-.487.857c-.77.534-2.173.165-2.33.122a14.023 14.023 0 0 0-.413-.097z"/><path fill="#c4122e" d="M34.165 85.783c-5.232 0-8.594-1.802-12.136-3.702-1.921-1.03-3.91-2.095-6.26-2.885-6.78-2.276-11.393.632-11.438.662l-.36-.555c.195-.13 4.91-3.12 12.01-.735 2.404.808 4.415 1.887 6.362 2.929 3.772 2.023 7.335 3.933 13.23 3.58 5.485-.329 9.235-2.184 12.86-3.976 1.517-.751 2.95-1.46 4.46-2.026l.357-.14c2.055-.81 7.511-2.964 12.34.716l-.401.526c-4.534-3.451-9.738-1.397-11.695-.625-.141.054-.264.104-.368.144-1.477.554-2.897 1.256-4.398 1.999-3.514 1.738-7.497 3.707-13.117 4.045-.497.03-.98.043-1.446.043"/><path fill="#c4122e" d="M10.964 80.815c-1.59-1.3-2.206-2.561-2.233-2.616l.597-.288c.007.014.587 1.19 2.056 2.391zM58.526 80.953l-.39-.537c1.712-1.243 1.915-2.568 1.917-2.582l.657.092c-.01.065-.247 1.619-2.184 3.027"/><path fill="#27409b" d="M42.275 45.863c.05.05.097.096.14.135 0 0-.022-.057-.14-.135M38.73 20.077a20.993 20.993 0 0 1-.29-1.784c.063.564.156 1.153.29 1.784"/><g clip-path="url(#a)" transform="matrix(1.25 0 0 -1.25 -250.29 1007.036)"><path fill="#fff" d="M231.217 789.567"/></g><g clip-path="url(#b)" transform="matrix(1.25 0 0 -1.25 -250.29 1007.036)"><path fill="#f4f4f4" d="M235.05 775.171c0 .086 0 0 0 0"/><path fill="#1b458f" d="M240.292 765.314a1.627 1.627 0 0 0-.614-.446c-.268-.118-.555-.172-.771-.118l.016.008a.961.961 0 0 1 .064.034c.015.01.033.017.048.026.544.337.25.972-.315 1.62l-.01.002-1.294 1.125-.07.061-.02.017.014.004.04.013.01.002.048.016.195-.109.658-.372.05-.026.291-.165.317-.179.003.001.007.002c.297.07.631.152.681.166.223.058.348.121.416.173.004-.046.563-1.438.235-1.855m-1.453.276-.468.381-.336.273-.084.26-.02.067-.118.354-.002.011c.377-.223.675-.625.87-.946.041-.069.25-.475.25-.475zm-2.438 3.2-.599 1.077-1.53.771 1.25-1.45c-.657.376-1.78.973-2.995 1.2 0 0 1.033-.967 1.526-1.45.094-.06.111-.109.111-.109l-.11.11c-.147.093-.477.22-1.233.262-.7.071-1.532.255-2.287.68 0 0 .15-.22.46-.487.003-.004.008-.007.012-.01l.004-.004a3.785 3.785 0 0 1 1.287-.712c.044-.015.618-.252.664-.265a4.3 4.3 0 0 1-1.048-.586 3.412 3.412 0 0 1-1.112-1.478c-.357-.913-.684-2.562-.432-3.502-.792 1.064-1.49 2.435-1.102 3.987-1.206-.679-1.983-.457-2.819-.334-.386-.52-.896-1.769-.96-2.84a3.59 3.59 0 0 0-.199.364c-.312.665-.47 1.425-.51 2.155-.019.291-.017.572.006.83V767l2.756 1.955-4.009.336.002.002c.067.05.136.097.203.146 1.543 1.086 3.447 1.835 5.358 1.75.148-.005.296-.017.444-.034-1.232.69-3.393.656-4.674.255-1.739-.543-2.429-.576-4.29-.246 1.954.395 1.883.448 3.042.996.952.533 2.76 1.517 5.04 1.097-.559.245-1.036.475-1.715.637-.663.152-1.744.3-2.9.052 0 0 .786.842 2.257 1.05-2.007 1.81-7.937 4.65-7.937 4.65 8.42-1.989 12-5.94 12.533-6.58l.104-.083c-.317.722-2.184 5.076-7.302 8.264-.709.442-1.492.754-2.215 1.173a22.768 22.768 0 0 0-3.194 2.231l.005-.016c-9.522 7.562-5.978 17.968-5.978 17.968-.308-2.414.101-4.778.8-6.883a23.641 23.641 0 0 1 1.575-3.635 27.485 27.485 0 0 1 1.802-2.922c1.185-1.448 2.592-2.686 4.222-3.58 0 0-7.186 4.894-3.104 15.327-.159-.446-2.985-8.807 7.633-16.089.205-.138.354-.133.415-.282 1.412-3.4 6.853-8.816 7.867-11.42-.046.532-.09 1.065-.137 1.597a5.882 5.882 0 0 0 1.336-2.325c.046.526.093 1.325.138 1.851.88-.483 2.183-1.492 3.26-2.653l-.03.031-.107.115.046-.049.025-.028a1.03 1.03 0 0 0 .036-.038c.01-.012.018-.019.03-.03l-.048.772-.023.36s1.626-1.999 2.18-3.545c.03-.088.06-.175.082-.259-.01-.435-.072-.727-.144-.92-.062-.164-.309-.434-.363-.474-.039-.03-.064-.039-.064-.039.076.058.092.198.093.328.001.164-.034.335-.095.53a5.357 5.357 0 0 1-.183.492c-.062.147-.11.244-.11.244a2.656 2.656 0 0 0-.029-.829c-.082-.358-.247-.452-.29-.47a.162.162 0 0 0-.012-.006 2.458 2.458 0 0 1-.039.163c-.045.131-.096.26-.146.385-.184.46-.856 1.731-1.076 2.174-.19-.27.064-.902.064-.902.086-.167.286-.592.286-.592-.186-.424.09-.893.462-1.072-.105-.047-.454.003-.699.145.091-.185.42-.626.583-.752-.472.117-1.556.974-2.15 1.466m4.005 1.787-.022.07.011-.046-.11.224c-.086.19-.19.364-.3.534-.952 1.567-2.336 2.865-2.336 2.865l.022-.38a.026.026 0 0 0 .005-.003l.043-.595s-4.46 2.591-6.364 4.98c-1.475 1.851-3.173 3.87-4.179 6.35l-.372.594c-1.285 1.527-2.625 1.24-5.56 4.635-1.006 1.165-2.117 3.457-2.469 4.973-.745 3.202-.612 6.847.18 10.027 0 0 .372 1.086-1.66-2.143l.001.002a15.154 15.154 0 0 1-2.069-5.33 13.713 13.713 0 0 1-.22-2.876 21.063 21.063 0 0 0-1.619 4.41c-.499 2.03-.694 4.141-.49 6.161 0 0-.358.348-1.59-2.947-1.235-3.297-1.43-6.11-.863-9.26-2.267 1.92-2.78 5.44-3.534 8.224v-.002h-.002l-.004-.003a.17.17 0 0 1-.029-.043c-.029-.054-.068-.176-.093-.434 0-.2-.026-.4-.026-.6-.137-1.396-.266-5.185 1.678-9.145.042-.092.08-.188.123-.278.276-.583.603-1.109.9-1.63.492-.868.875-1.08 1.427-1.845-.058.01-3.394.71-4.615.892.74-.484 2.091-1.712 3.628-3.152 0 0 4.603-.37 8.216-3.043 0 0-3.128 1.531-6.887 1.792l.664-.625a138.275 138.275 0 0 1 3.103-2.854l-.014.001-2.715.27 3.903-3.158.701-.024s1.311.046 2.61-.247c1.383-.314 2.118-.763 2.118-.763-.773.262-2.059.302-2.835.252-.553-.035-.914-.19-1.316-.246l.23-.183 2.461-1.98 2.193-.058c-1.85-1.152-3.668-1.606-5.998-.825a11.311 11.311 0 0 0-3.457 1.885c.412-1.01 1.37-1.88 2.113-2.646-2.455.19-4.433.757-6.676 1.784.858-1.33 1.54-2.236 2.22-2.945.68-.708 1.616-1.475 2.085-1.756.298-.179 1.67-.172 2.577-.084.17.016.326.034.453.056.208.034.468.09.745.154.933.215 2.056.53 1.994.488a14.95 14.95 0 0 0-2.16-1.16c-1.305-.56-2.727-.908-4.023-.744 1.45-.518 2.966-.897 4.502-1.042.528-.05.72-.043 1.18.171.686.317 1.252.578 1.797.838.276.133.55.267.827.41.383.193.777.4 1.218.645-.254-.239-.51-.462-.772-.684l-.449-.372c-.53-.434-1.097-.884-1.744-1.452 1.734-.12 2.738-.408 5.041.312 0 0-.474-.354-1.133-.736l.683-1.34-.74.333.486-.91s.346-.429.84-.787l.166-.537c-.38.113-.869.52-1.11.681.384-1.546 1.303-1.243 1.568-2.18.178-.633.848-1.767.47-2.369-.446-.709-.738-.659-1.365-1.224-.727-.652-.167-1.468-.017-1.728.15.763.72 1.26 1.042 1.357.507.15 1.115.035 1.337.257.801.8 2.524 1.002 3.716.256-.552.892-.836.865-1.934 1.182 1.94-.128 2.068-.553 3.017-1.657.078.63-.444 1.43-.89 1.812-.139.118-1.68.335-3.179.465-.526.046-.739.722-.815 1.086.092-.053.516-.276.93-.27-.106.527-.25 1.126-.338 1.486.148-.067.3-.16.631-.172l-.217.886c-.102.708-.332 1.22.348 2.302.375-.263.541-.377.711-.568 0 0 .141-.676.296-1.037.03-.068.698-.639.722-.708l-1.15.333s.384-.873 1.143-1.376c.45-.159.85-.34.981-.515.135-.182.362-.672.255-.935-.086-.212-.697.694-1.983-.386.878-.014 1.931-.254 2.158-.522.294-.348.505-.664.717-.79.934-.56 1-.855.924-1.954.578.446.416 1.61.33 1.89.765-.919.597-2.167.363-2.655.574.32 1.27 1.588.613 2.591-.178.161-1.149.888-1.338 1.104-.487.557-.609 1.183-.848 1.818.17-.01.381-.078.551-.076-.086.376-.207.866-.3 1.407l-.026.148-.009.061-.035.244-.006.06c-.01.082-.02.166-.028.251.315-.202.532-.288.532-.288l-.54 1.464v.004c.01.11.024.221.042.332l.003.021c.016.1.037.201.06.3l.012.05c.021.09.05.18.08.27.006.022.011.043.02.065.037.107.08.215.128.32-.244-.525.474-1.282.474-1.282.09 1.16 1.127 2.243 1.997 2.634-.048-.322.12-.646.12-.646.256.548.781.763 1.157.85l.704-.284.746-.3.196-.079s.134-.593.464-.858c.318-.257.648-.446 1.441-.956-.059-.197-.238-.382-.595-.51 1.127-.423 2.548.084 2.347 1.295-.07.427-.259 1.606-.259 1.606v.004l.268.87.079.26.008.027.037.12c-.003.561-.182 1.155-.454 1.737"/><path fill="#1b458f" d="m247.1 796.587.066-.006c-1.813-.11-3.61-.635-5.105-1.585 1.232 2.399 3.953 4.024 6.359 4.976 0 0 .297.462-2.61.027a10.925 10.925 0 0 1-1.124-.185l-.017-.003h.005a10.947 10.947 0 0 1-4.398-2.074 10.13 10.13 0 0 1-1.92-1.988c-2.45-3.26-3.278-6.11-3.278-6.11s-.354 4.207 5.02 9.758a20.683 20.683 0 0 0 1.992 2.793s.124.629-2.92-1.68c-2.2-1.538-4.122-3.56-5.508-5.816-.498-.892-1.564-2.893-1.873-4.217l.008-.12s.033-.792.179-1.847c.177-1.276.7-3.038.7-3.038-.356.727-.992 2.33-1.203 3.068a13.764 13.764 0 0 0-.367 1.62c-.018.103-.035.21-.052.32-.025.174-.051.347-.07.516a18.645 18.645 0 0 0-.103 1.785c-.011.773.023 1.472.058 1.977-1.397-3.203-1.53-5.67-1.532-6.658-.07-.63-.107-1.1-.133-1.494.362-1.03 1.005-2.402 2.157-4.143 0 0-1.036.577-2.255 2.71-.05-.47-.135-1.005-.321-1.838 1.382-2.348 2.768-4.155 4.02-5.534v2.794c.449-.45.758-.798.97-1.068.2.91.48 2.002.872 3.164 2.436 7.25 5.324 9.459 5.324 9.459-2.658-4.153-5.097-12.551-4.995-16.472.515-.44.975-.791 1.357-1.06-.205.31-.38.663-.423.938 1.183 5.602 4.873 9.258 4.873 9.258.804 8.026 9.887 11.427 9.887 11.427.739.54-3.64.346-3.64.346"/><path fill="#d3d2d2" d="M248.463 750.353V754.892a39.124 39.124 0 0 0-1.345-.987V752.567h-.688v.87c-2.951-1.95-4.411-2.155-4.411-2.155 1.989 1.017 3.411 2.014 4.411 2.86v1.732c-3.626-3.115-6.882-4.719-8.086-5.256l.001-.72H244.562c1.241.205 2.568.304 3.9.247"/><path fill="#a7a5a6" d="M242.85 749.535a15.851 15.851 0 0 1-2.598-.903v.903zM235.039 745.728a66.897 66.897 0 0 0-.857-.375l.003.922v1.892h.854v-1.892zM235.038 748.507h-.853v2.143h.853zM238 747.497v.67h-.762V746.878c.253.146.508.298.765.455zM238 748.507h-.762v2.143H238zM235.965 746.741v1.426h-.587v-2.283c.195.094.39.194.588.294zM235.965 748.507h-.587v2.143h.587zM236.89 748.507h-.587v2.143h.587zM236.89 746.891v1.276h-.589v-1.81c.196.104.392.211.588.322zM238.003 752.468h-3.818v-1.479h3.818zM218.982 747.264c-.278.136-.558.273-.84.408l-.001.165v.33h.84v-.33zM218.995 748.507h-.853v2.143h.853zM221.174 746.202c.258-.12.517-.24.774-.355l.008 1.661v.66h-.782v-.66zM221.956 748.507h-.764v2.143h.764zM219.907 748.507h-.586v2.143h.586zM220.835 748.507h-.577v2.143h.577zM221.959 752.468h-3.818v-1.479h3.818zM220.25 746.645c.178-.087.4-.204.586-.295v1.817h-.588v-1.387zM217.215 748.109c.197-.091.392-.182.587-.275v1.701h-.588V748.4zM219.32 747.098l.099-.047.488-.239v1.355h-.586v-.908z"/><path fill="#d3d2d2" d="M207.845 751.956v2.937c.475-.366.922-.692 1.344-.988v-1.338h.688v.87c2.951-1.95 4.411-2.154 4.411-2.154-1.989 1.017-3.41 2.013-4.41 2.86v1.731c3.473-2.984 6.607-4.582 7.923-5.182v-.796s-5.286-.026-5.418.002c-1.54.33-3.095.352-4.538.21"/><path fill="#a7a5a6" d="M215.946 748.657c-.74.306-1.735.708-2.29.893h2.29zM216.287 748.708v.828h.588v-.828l-.002-.442c-.058.027-.28.12-.588.25zM238.987 748.167v1.368h-.644v-1.996c.212.132.427.267.643.404zM239.915 748.634v.9h-.588v-.9l.006-.475c.18.106.375.21.582.313zM233.851 750.989v1.047a5.778 5.778 0 1 1-11.556 0v-1.047h.984a4.855 4.855 0 1 0 9.519-.004z"/><path fill="#d3d2d2" d="M209.19 755.196v1.298l-1.344 1.36v-1.525c.184-.286.59-.843 1.344-1.568zM248.463 756.33c-.185-.287-.591-.844-1.345-1.569v1.733l1.345 1.36v-1.044z"/><g fill="#a7a5a6"><path d="M227.102 746.399c-.155 0-.26-.102-.26-.28 0-.168.083-.262.26-.262.108 0 .205.035.298.106v.009c0 .276-.12.427-.298.427M228.564 746.392c-.202 0-.313-.194-.313-.547 0-.354.11-.55.313-.55.2 0 .309.196.309.55 0 .353-.108.547-.31.547"/><path d="M229.903 745.069a.93.93 0 0 0-.451.108l.042.247a.803.803 0 0 1 .41-.117c.174 0 .303.087.303.26 0 .149-.097.24-.273.24a.592.592 0 0 1-.233-.044l-.19.042.054.786h.833l.038-.24h-.648l-.027-.348a.782.782 0 0 0 .225.03c.297 0 .49-.17.49-.451 0-.332-.242-.513-.573-.513m-1.34 0c-.357 0-.595.277-.595.775 0 .496.238.776.596.776.355 0 .594-.28.594-.776 0-.498-.24-.775-.594-.775m-1.757-.002-.036.236c.298.06.53.192.608.448a.65.65 0 0 0-.358-.11c-.27 0-.45.16-.45.463 0 .31.229.516.534.516.327 0 .557-.22.557-.633 0-.524-.357-.822-.855-.92m-.594.03h-.282v1.22l-.305-.117-.031.223.368.17h.25v-1.495zm6.502 5.544a4.858 4.858 0 0 0-9.353.003l-1.067.006v-3.992l-.002-.961c2.005-.872 4.013-1.511 6.195-1.511h.043c1.904.007 3.617.373 5.312 1.028l.008 5.438zM206.53 758.485c.202-.038.396-.087.579-.143v-2.594a5.212 5.212 0 0 1-.58.143zM206.194 755.942a6.036 6.036 0 0 1-.579.044l.001 2.594a6.652 6.652 0 0 0 .578-.043zM204.699 755.942c.188.023.382.04.58.044v2.594a5.727 5.727 0 0 1-.58-.044zM203.786 755.746c.184.06.376.106.578.144v2.594a5.425 5.425 0 0 1-.578-.143zM203.262 760.592c.125.057.256.11.394.157v-.312zM205.279 759.682a5.727 5.727 0 0 1-.58-.044v1.35c.188.023.382.038.58.045zM206.194 760.988a6.036 6.036 0 0 1-.579.044v-1.35c.197-.005.391-.02.58-.044zM206.53 760.936c.202-.038.395-.087.579-.143v-1.35a4.95 4.95 0 0 1-.58.142zM204.363 759.585a5.194 5.194 0 0 1-.578-.142v1.35c.184.055.377.104.578.143zM207.239 760.75c.14-.049.273-.102.399-.16l-.4-.154zM203.262 758.14c.125.059.256.11.394.158v-.312zM207.239 758.298c.14-.048.273-.101.399-.16l-.4-.153z"/><path d="M207.638 761.467c-.601.278-1.363.444-2.19.444-.826 0-1.585-.166-2.186-.442v-.563c.6.277 1.36.441 2.186.441.827 0 1.589-.166 2.19-.443zM207.638 758.995c-.601.277-1.363.444-2.19.444-.826 0-1.585-.165-2.186-.442v-.563c.6.276 1.36.442 2.186.442.827 0 1.589-.167 2.19-.444z"/><path d="M207.638 761.715c-.601.278-1.363.445-2.19.445-.826 0-1.585-.166-2.186-.442l1.736 1.653a6.052 6.052 0 0 0 .9.001zM204.997 763.833v-.273a6.052 6.052 0 0 0 .9 0v.273c0 .103-.224.107-.282.11h-.337c-.06-.003-.28 0-.28-.11M207.109 752.934a4.803 4.803 0 0 1-.58.144v2.523a5 5 0 0 0 .58-.142zM206.194 753.13a6.011 6.011 0 0 1-.579.044v2.524c.197-.005.392-.021.58-.044zM205.279 753.173a5.73 5.73 0 0 1-.58-.043v2.524c.188.025.382.038.58.045zM204.363 753.077a5.033 5.033 0 0 1-.578-.143v2.525c.184.057.377.104.578.142zM251.947 758.485c.202-.038.395-.087.578-.143v-2.594a5.14 5.14 0 0 1-.578.143zM251.612 755.942a6.011 6.011 0 0 1-.58.044v2.594a6.538 6.538 0 0 0 .58-.043zM250.117 755.942c.188.023.38.04.58.044v2.594a5.705 5.705 0 0 1-.58-.044zM249.203 755.746c.184.06.377.106.578.144v2.594a5.485 5.485 0 0 1-.578-.143zM248.68 760.592c.125.057.256.11.394.157v-.312zM250.696 759.682a5.727 5.727 0 0 1-.58-.044v1.35c.188.023.382.038.58.045zM251.612 760.988a6.011 6.011 0 0 1-.58.044v-1.35c.199-.005.392-.02.58-.044zM251.947 760.936c.202-.038.395-.087.578-.143v-1.35a4.933 4.933 0 0 1-.578.142zM249.78 759.585a5.194 5.194 0 0 1-.577-.142v1.35c.184.055.377.104.579.143zM252.656 760.75c.14-.049.273-.102.4-.16l-.4-.154zM248.68 758.14c.125.059.256.11.394.158v-.312zM252.656 758.298c.14-.048.273-.101.4-.16l-.4-.153z"/><path d="M253.055 761.467c-.602.278-1.363.444-2.19.444-.826 0-1.585-.166-2.186-.442v-.563c.601.277 1.36.441 2.186.441.827 0 1.59-.166 2.19-.443zM253.055 758.995c-.602.277-1.363.444-2.19.444-.826 0-1.585-.165-2.186-.442v-.563c.601.276 1.36.442 2.186.442.827 0 1.59-.167 2.19-.444z"/><path d="M253.055 761.715c-.602.278-1.363.445-2.19.445-.826 0-1.585-.166-2.186-.442l1.735 1.653a6.052 6.052 0 0 0 .901.001zM250.415 763.833v-.273a6.052 6.052 0 0 0 .9 0v.273c0 .103-.224.107-.282.11h-.338c-.06-.003-.28 0-.28-.11M252.526 752.934a4.834 4.834 0 0 1-.578.144v2.523c.201-.037.394-.085.578-.142zM251.612 753.13a6.011 6.011 0 0 1-.58.044v2.524c.199-.005.392-.021.58-.044zM250.696 753.173a5.73 5.73 0 0 1-.58-.043v2.524c.188.025.382.038.58.045zM249.78 753.077a5.033 5.033 0 0 1-.577-.143v2.525c.184.057.377.104.578.142zM204.36 749.47a22.86 22.86 0 0 1-.574-.17v3.325s.376.106.577.144v-1.972zm.924.237a22.167 22.167 0 0 1-.59-.146l.005 1.313v1.947s.381.04.58.044l.006-1.99zm.91 3.114c-.188.025-.579.044-.579.044v-1.99l-.003-1.093c.19.041.383.08.58.117zm.915-1.863v1.667c-.184.058-.579.144-.579.144v-1.81l-.005-1s.384.063.58.09zm42.671-.344v2.155c-.2-.038-.577-.144-.577-.144v-2.239s.005-.043.005-.3c.191-.017.382-.038.573-.062m.921.701-.006 2.14c-.198-.005-.579-.044-.579-.044v-2.096s-.008-.552-.008-.746c.2-.03.398-.063.595-.1m.91-.208c-.194.052-.388.1-.584.142l.002.912v2.14s.392-.019.58-.044v-2.096zm.912-.283c-.193.07-.387.132-.584.191l.005 1.247v1.943s.395-.086.58-.144v-1.799z"/></g><path fill="#c4122e" d="M226.173 750.294a6.869 6.869 0 0 1 2.02-.717c.011-.002.02-.004.03-.004.034 0 .068.011.095.034a.152.152 0 0 1 .06.114 6.104 6.104 0 0 1-.234 1.85.153.153 0 0 1-.08.096c-.995.482-1.8 1.01-2.395 1.572-.433.41-.748.83-.933 1.246a.155.155 0 0 1-.268.026 4.523 4.523 0 0 1-.695-1.583.155.155 0 0 1 .011-.097c.492-1.085 1.296-1.939 2.39-2.537"/><path fill="#c4122e" d="M225.875 753.481a.157.157 0 0 1 .107-.042h.013a.15.15 0 0 1 .11.062c1.162 1.567 2.434 2.15 3.297 2.362a.154.154 0 0 1 .01.296 4.372 4.372 0 0 1-1.36.215 4.392 4.392 0 0 1-3.103-1.288.156.156 0 0 1-.04-.144c.065-.26.273-.798.966-1.46"/><path fill="#c4122e" d="M226.329 753.278a.153.153 0 0 1 .03-.212 10.227 10.227 0 0 1 1.739-1.068.164.164 0 0 1 .068-.015.15.15 0 0 1 .117.054 5.808 5.808 0 0 0 3.476 1.886c.05.007.094.04.117.084a.151.151 0 0 1-.005.143 4.401 4.401 0 0 1-1.391 1.493.159.159 0 0 1-.082.026c-.173.005-.825-.006-1.655-.37-.911-.399-1.725-1.079-2.414-2.02M232.155 753.541a.153.153 0 0 1-.163.1 5.583 5.583 0 0 1-.996-.215.153.153 0 0 1-.1-.195c.113-.349.31-1.06.344-1.896a5.472 5.472 0 0 0-.136-1.502 4.556 4.556 0 0 0-.312-.886.155.155 0 0 1 .244-.18 4.374 4.374 0 0 1 1.119 4.775M228.28 749.198a.152.152 0 0 1-.1.065 7.336 7.336 0 0 0-2 .679c-.933.479-1.681 1.133-2.223 1.943a.158.158 0 0 1-.178.062.156.156 0 0 1-.105-.154c.02-.525.136-1.038.342-1.524a4.398 4.398 0 0 1 1.433-1.815 4.422 4.422 0 0 1 2.066-.821c.007-.002.012-.002.019-.002.044 0 .086.02.116.054.326.376.547.847.654 1.396a.156.156 0 0 1-.024.117"/><path fill="#c4122e" d="M230.609 753.107c-.014.042-.044.076-.084.094s-.087.018-.126 0a5.529 5.529 0 0 1-1.918-1.416.155.155 0 0 1-.031-.144c.087-.29.233-.88.25-1.586a4.644 4.644 0 0 0-.128-1.235 3.332 3.332 0 0 0-.418-.98.157.157 0 0 1-.003-.163.157.157 0 0 1 .133-.075h.009c.44.024.88.12 1.308.281a.13.13 0 0 1 .052.032c.453.426.792.937 1.006 1.517.179.486.272 1.027.277 1.606a6.8 6.8 0 0 1-.327 2.07"/></g></svg>