<svg xmlns="http://www.w3.org/2000/svg" xml:space="preserve" width="274.11528447" height="364.810011208" x="0px" y="0px" viewBox="0 0 340.231 452.801"><path fill="#FFF" d="M332.744 21.319C332.214 21.191 257.846.033 170.877 0c-.255 0-.506.011-.762.011-.257 0-.507-.011-.762-.011C82.385.033 8.018 21.191 7.488 21.319A10.3 10.3 0 0 0 0 31.233v237.459l.188 1.916c.204 1.561 23.121 118.723 165.77 181.331 1.314.572 2.729.861 4.144.861.005 0 .009-.004.015-.004.005 0 .009.004.014.004 1.415 0 2.829-.289 4.144-.861 142.648-62.608 165.565-179.771 165.77-181.331l.188-1.916V31.233a10.305 10.305 0 0 0-7.489-9.914z"/><path d="M331.093 27.061c-.222-.058-75.262-20.94-160.977-21.082C84.4 6.121 9.361 27.005 9.139 27.061a4.302 4.302 0 0 0-3.165 4.163v237.468l.071.809c.085.645 22.17 115.479 162.33 176.971a4.366 4.366 0 0 0 1.741.364c.592 0 1.187-.123 1.74-.364 140.16-61.492 162.245-176.326 162.33-176.971l.071-.809V31.224a4.302 4.302 0 0 0-3.164-4.163z"/><path fill="#FFF" d="M170.116 14.645c-35.297.042-68.739 3.685-95.796 7.895v349.19c22.687 23.636 53.646 47.273 95.796 66.038 42.149-18.765 73.108-42.402 95.795-66.038V22.539c-27.057-4.21-60.499-7.852-95.795-7.894z"/><path d="M123.25 337.89c-13.207-13.197-19.275-28.896-19.267-44.62 0-18.75 8.566-37.491 23.485-52.4 11.698-11.692 25.718-19.47 40.277-22.303l-20.354-20.345c-5.449 5.443-26.465 26.413-34.299 34.247h.095l-3.196 3.159-1.126 1.094c-.748.634-1.893 1.22-3.197 1.2-1.477.096-3.032-.704-4.03-1.845l-11.154-11.275c-1.106-.971-1.958-2.484-1.863-4.002-.024-1.315.576-2.461 1.334-3.345l77.271-77.238-17.019-16.995c-5.439 5.435-26.465 26.413-34.304 34.256h.076l-3.179 3.146-1.135 1.103c-.729.609-1.864 1.234-3.203 1.211-1.48.095-3.008-.714-4.017-1.851l-11.168-11.28c-1.083-.971-1.943-2.464-1.858-3.997-.024-1.32.577-2.464 1.343-3.35l86.34-86.297a9.722 9.722 0 0 1 7-2.966 9.394 9.394 0 0 1 6.859 2.89l57.453 57.458c.634.757 1.225 1.901 1.202 3.207.094 1.467-.695 3.022-1.821 4.021l-.544.539h-.023c-.327.303-.771.748-1.306 1.271a1180.232 1180.232 0 0 0-3.997 3.979c-2.904 2.89-5.79 5.774-5.799 5.774l-1.315 1.297-48.508-48.523-22.047 22.065 81.34 81.35c.645.762 1.235 1.916 1.211 3.211.095 1.471-.695 3.018-1.831 4.03l-12.951 12.871-48.521-48.522-22.058 22.047 40.051 40.05c7.406 3.169 14.507 7.938 20.992 14.438 12.502 12.647 19.593 27.875 19.603 43.044 0 10.988-3.746 21.893-11.688 31.55l-1.296 1.58-18.93-18.944.729-1.229c3.534-5.988 5.597-12.133 5.587-18.207-.01-7.261-2.862-14.541-10.053-21.749-7.733-7.715-16.148-10.818-24.725-10.837-12.999-.023-26.508 7.417-37.155 18.088-10.671 10.639-18.103 24.162-18.079 37.166.011 8.576 3.123 16.995 10.828 24.71 6.532 6.523 13.793 9.3 21.226 9.31 8.457 0 17.202-3.689 24.961-10.09l1.291-1.05 18.646 18.646-1.461 1.301c-11.911 10.567-25.77 15.988-39.606 15.988-14.6 0-29.113-6.032-41.117-18.037z"/><path fill="#C00" d="m175.527 221.116-3.693.497c-14.919 2.048-29.603 9.702-41.753 21.863-14.343 14.322-22.416 32.179-22.416 49.794.014 14.777 5.633 29.431 18.183 42.009 11.418 11.396 24.933 16.953 38.519 16.962 12.308 0 24.72-4.593 35.685-13.784l-13.52-13.527c-7.946 6.183-16.952 9.876-25.996 9.886-8.377.01-16.713-3.24-23.826-10.387-8.334-8.301-11.931-17.823-11.911-27.316.019-14.427 8.042-28.651 19.162-39.767 11.121-11.121 25.339-19.147 39.757-19.172 9.489-.009 19.015 3.581 27.326 11.911 7.744 7.725 11.153 16.083 11.135 24.36 0 6.466-2.043 12.805-5.383 18.831l14.03 14.034c6.556-8.632 9.578-18.064 9.578-27.615.01-14.001-6.569-28.348-18.522-40.448-6.258-6.271-13.079-10.808-20.15-13.793l-.354-.15-43.145-43.14 27.274-27.255 48.521 48.517 10.354-10.269c.88-1.021.647-.61.743-1.419-.02-.369-.038-.421-.251-.729l-83.833-83.831 27.265-27.274 48.526 48.536c2.81-2.806 9.271-9.263 10.369-10.283.869-.998.643-.596.732-1.405-.019-.369-.028-.421-.25-.748l-57.349-57.339c-1.116-1.135-2.507-1.773-4.229-1.788a6.029 6.029 0 0 0-4.371 1.863l-86.245 86.193c-.345.454-.363.524-.388.875.085.742-.128.354.79 1.396l11.177 11.291c1.008.895.62.667 1.396.761.341-.022.436-.042.762-.273l.842-.833.063-.076.052-.063.104-.104c.085-.085.188-.199.336-.35.289-.284.709-.705 1.234-1.23 1.06-1.063 2.568-2.587 4.386-4.397 3.633-3.629 8.471-8.473 13.314-13.302 9.669-9.659 19.353-19.309 19.353-19.309l1.291-1.292 22.235 22.188-79.75 79.699c-.327.445-.358.53-.383.885.094.758-.137.359.79 1.41l11.168 11.281c.998.875.61.663 1.41.748.354-.019.43-.042.747-.26l.908-.903.047-.057.104-.113c.085-.076.189-.189.336-.341.289-.284.709-.705 1.234-1.239 1.06-1.063 2.567-2.578 4.385-4.399l13.315-13.301c9.669-9.659 19.351-19.317 19.351-19.317l1.292-1.296 25.5 25.477-1.306 1.305 1.306-1.305 2.637 2.627z"/></svg>