<svg xmlns="http://www.w3.org/2000/svg" width="300" height="302"><path d="M514.409 56.857v-.025.025zM514.409 56.831c0-.017.001-.029 0 0zM514.409 56.832v-.001.001z" style="fill:#fff;fill-opacity:1;fill-rule:nonzero;stroke:#fff;stroke-width:.55400002;stroke-linecap:butt;stroke-linejoin:miter;stroke-miterlimit:3.86400008;stroke-opacity:1;stroke-dasharray:none" transform="matrix(8.28833 0 0 -8.28833 -4026.71 670.799)"/><path d="M514.409 56.857v-.025.025M514.409 56.831c0-.017.001-.029 0 0M514.409 56.832v-.001.001" style="fill:#231f20;fill-opacity:1;fill-rule:nonzero;stroke:none" transform="matrix(8.28833 0 0 -8.28833 -4026.71 670.799)"/><path d="M521.088 54.957c-.338.616-.277 1.588-1.136 1.77-.894.026-1.856-.321-2.655-.807-.312-.312.113-.581.13-.885.096-.433.313-.815.356-1.266-.199-.069-.399-.165-.607-.217-.174-.061-.321.026-.434.13-.512.234-1.024-.035-1.449-.251-.182-.295-.529-.044-.789-.148-.746-.043-1.674-.026-2.299-.599-.425-.416.026-.902-.018-1.37-1.17-.313-2.325-.668-3.556-.833-.338-.061-.694-.104-1.041-.156-1.084-.165-2.195-.286-3.235-.312l-.035.034c.009.044.052.078.035.13.745.929 1.804 1.64 2.836 2.152.148.078.286.199.451.251.13.174.33.157.469.321.885.547 1.856 1.189 2.307 2.169.139.208.173.451.261.686.069.208.069.39.138.598.217-.529.252-1.188.816-1.501a2.619 2.619 0 0 1 2.472-.364c1.11.434 1.718 1.631 1.822 2.767.052.148.225.174.269.321-.156.139-.235.356-.156.547.06.199.347.164.373.373-.053.052-.122.069-.183.112-.208.148-.321.382-.269.634.018.199.278.277.312.468-.156.052-.338.078-.433.217 0 .07.087.104.139.121.529.096 1.405.278 1.787-.32.564-.695-.139-1.475-.087-2.221.061-.165.009-.417.182-.503 0 .607.608.771.937 1.205l.087-.13c.208.312-.044.781.217 1.085.078.052.156-.052.234 0v.095c-.217.199-.208.486-.252.755.026.13.182.043.235.147a1.078 1.078 0 0 0-.356.451c-.052.321-.364.521-.599.685l.165.2c.061.174.183.33.252.503-.191.052-.425.104-.599.235.304.468.269 1.11.287 1.587l-.087-.052c-.044.321-.052.676-.2.937-.069-.018-.017-.13-.104-.104-.165.347-.295.728-.599 1.006-.147.035-.017-.13-.103-.156-.269.191-.4.468-.434.772-.078 0-.096-.078-.113-.13-.121-.911.304-1.822.052-2.707-.122-.243-.122-.538-.321-.755-.2-.555-.711-.919-1.188-1.231-.035.008-.079-.009-.096.017-.061.26.174.469.165.711-.191.035-.364.191-.469.338a.565.565 0 0 0 .252.599c.069.165-.165.087-.234.165a.893.893 0 0 0-.33.703c-.017.208.217.338.217.52-.225 0-.399.217-.503.399-.113.321-.122.764.052 1.084.208.903 1.466.894 1.483 1.874.052.191.348-.008.469.182.078.087-.061.061-.087.087-.261.139-.209.451-.234.668.121.044.19-.086.303-.017.053.043.174.061.131.148-.165-.018-.208.164-.313.251.069.052.139-.026.218 0 .051.017.146.034.112.13a.566.566 0 0 0-.251.451h.121c.234.078-.052.208-.035.338.017.035.053.044.087.035.034.026.061.069.043.095-.338.087-.208.495-.529.608.243.191-.139.252-.121.434-.035.095-.13.104-.2.13-.009.052.009.095.052.13.104.165-.095.182-.199.217 0 .104.026.347-.2.269.113.295-.251.19-.381.217.008.121.069.234.026.355-.139.035-.217-.061-.33-.052l-.017.234c-.122.035-.183-.06-.287-.052-.303-.303-.26.261-.512.321-.06.035-.164.096-.234.018.035-.157.174-.304.096-.486-.052-.07-.139-.191-.235-.139a3.463 3.463 0 0 1-.382.434c-.068.078-.077.234-.216.251-.087-.208-.061-.459-.087-.685-.13.026-.26.165-.382.087-.095-.313.043-.607.269-.833-.165-.148-.286-.312-.434-.468-.217-.425-.667-.677-.988-1.05-.356-.278-.382-.729-.434-1.119.13-.217.355-.148.555-.252.026-.069-.061-.095-.087-.139-.095-.034-.113.113-.199.087-.113-.017-.13-.139-.165-.217.043-.077.026-.182.13-.234.2-.113.425 0 .599.148.147-.035.329.06.485-.018v.035c.312.095.443.477.755.616.122-.044.234.078.312-.061-.251-.356-.72-.46-1.032-.737-.564-.33-1.084-.885-1.353-1.466-.104-.148-.078-.373-.234-.486-.304.486-.417 1.058-.781 1.501-.217.182-.547.191-.807.086-.521-.373-1.162-.433-1.666-.824l-.034.035a.718.718 0 0 1-.183.416c-.164.078-.329.13-.52.139-.286.026-.564-.199-.833-.017a.979.979 0 0 0-.104.381c-.051.122.035.409-.147.452-.139.225-.113.52-.13.798-.018.06-.096 0-.122.052-.121.425-.052.937-.087 1.336.053.182-.13.408.087.52.035.052.061.156-.017.182-.026.026-.026.087.017.104.356.035.286.564.668.512.052.044.043.122.069.174-.017.199.062.39-.017.598l-.555-.017-.043.035c-.07.286-.035.633.182.832.182.053.33.165.512.07a.479.479 0 0 0 .217-.356c-.044-.087-.131-.139-.217-.113-.174.07-.139.313-.296.313-.043-.261.044-.521.27-.668a.458.458 0 0 1 .399 0 .63.63 0 0 1 .295.451c-.13.321.295.104.407.251.313.122.217.426.234.686 0 .164.243.277.243.416a.698.698 0 0 1-.329.052c-.26 0-.252-.295-.399-.434l-.017.304a.782.782 0 0 1-.287.295c-.087-.009-.182.078-.251 0-.018-.113.104-.104.138-.182-.034-.304-.381-.243-.589-.33-.278-.043-.304-.381-.564-.434-.399-.242-.408-.754-.356-1.171-.217-.052-.035-.277-.165-.399-.165.044-.2.243-.251.382-.096.278-.053.633-.035.937.06.425.529.676.772 1.015-.148.295.251.364.269.616-.078.061-.165-.061-.234.035 0 .034 0 .078.017.103.486.087.139.53.347.816-.017.139-.095.182-.182.286-.095-.034-.182.044-.2.148-.104.165-.303.225-.486.199-.078.035-.164.104-.251.052-.182-.225-.46-.303-.616-.581l-.069.061c-.105-.139-.234-.295-.234-.495.086-.225-.217-.217-.313-.355-.156-.165-.121-.417-.303-.547-.209.339-.556.512-.72.868.008.459-.599.711-.347 1.231 1.162.712 2.489.096 3.756.035 1.83-.26 4.146-.286 5.343 1.371.009.112.148.225.087.321-.581-.356-1.336-.356-2.021-.408-.469.017-1.006.009-1.388.139-.954.121-1.822.468-2.655.867a4.215 4.215 0 0 1-2.437.33c-.087-.009-.191-.069-.252-.017.044.173-.052.347-.147.503-.121.069-.243.217-.373.217a.757.757 0 0 1-.685-.252c-.157-.191-.174-.52-.061-.728.095-.165.251-.278.381-.374.044-1.067 0-1.978.035-2.949-.035-.156-.156-.347-.035-.503a32.11 32.11 0 0 0 0-2.238l-.052-.07c-.043-.069-.008-.147.035-.199l.017-5.509c-.112-.113-.251-.173-.32-.321a.584.584 0 0 1 .069-.399c.347-.468.85-.321 1.353-.269l.035-.034c-.087-.2-.069-.495.061-.669.051-.173-.122-.303-.243-.398a3.024 3.024 0 0 0-2.108-.287c-.373.052.017.356-.053.573-.068.303-.234.642-.581.702-.303.079-.659-.017-.85-.268-.008.251.026.563.295.685.252-.043.495-.113.703-.287.156-.19.269-.338.52-.346.122-.217.079-.477.035-.72l.061-.052c.304-.061.642-.035.954-.087.182.286.495-.07.668.269.061.061.217-.026.217.104-.295.468-.833.685-1.232 1.015-.46.616-1.284.616-1.874 1.041-1.093.269-1.04-1.067-1.518-1.622l-.069.095c-.304 1.041-1.319 1.839-2.238 2.29-.113.078-.278.156-.313.304.495.251.686-.555 1.18-.573.365.13.521-.278.919-.182a.23.23 0 0 1 .157.165c.043.104.017.251-.087.304-.113.086-.156-.096-.269-.053-.035.035-.095.079-.069.122.191.078.477.043.572.295.044.659-.477 1.145-.954 1.544-.433.26-.529.772-.937 1.067.139.13.243.269.304.434-.026.164.06.312-.07.434-.121-.035-.217-.087-.329-.139-.07.112-.017.286-.035.425-.026.095-.009.312-.148.26-.086-.312-.39-.425-.537-.711h-.052c-.339.13-.104.485-.096.685-.286.017-.407-.278-.537-.468a1.2 1.2 0 0 1-.452.164c-.13-.06.018-.164-.051-.251-.105.008-.191.069-.295.069-.14-.104.043-.269-.036-.416a.579.579 0 0 1-.32.026c0-.148-.061-.269-.217-.243-.061-.078.026-.165 0-.234-.078-.026-.183 0-.235-.087.009-.096.044-.173.07-.252-.278.018-.121-.329-.382-.364-.06-.078.035-.13.061-.2-.329-.112-.191-.52-.529-.607-.044-.121.086-.095.13-.147-.009-.113-.139-.156-.13-.269.017-.148.182-.017.234-.113-.087-.13-.104-.321-.269-.39-.018-.243.235-.079.33-.148-.078-.13-.183-.243-.33-.269.087-.182.304-.121.469-.13.043-.147-.079-.217-.035-.364-.07-.139-.122-.33-.321-.321.069-.2.312-.122.485-.165-.008-.33.122-.668.434-.885.599-.278 1.154-.867 1.224-1.535-.052-.321-.009-.677-.304-.902a.834.834 0 0 0-.312-.139c.043-.148.19-.235.217-.382a.867.867 0 0 0-.27-.798c-.086-.052-.208-.043-.286-.121.156-.174.295-.382.286-.633-.069-.113-.164-.243-.268-.287-.607-.13.199-.52-.087-.833-.564.269-1.111.798-1.353 1.371-.365.702-.347 1.448-.261 2.238.122.277.07.572.096.85.017.13-.026.304-.13.382-.07-.295-.191-.599-.451-.781-.035.017-.009.052-.018.078-.008.026 0 .104-.052.087-.373-.234-.46-.677-.651-1.032-.034.043-.043.112-.112.13-.061-.165-.078-.347-.121-.521-.053-.13.025-.329-.07-.416a.13.13 0 0 1-.095.034v-.052c.026-.555.069-1.093.312-1.552-.095-.078-.217-.07-.312-.148-.079-.078-.286.009-.27-.147.191-.2.2-.468.417-.668-.581-.165-.486-.798-.954-1.102.008-.13.173-.035.234-.139-.026-.303-.078-.581-.26-.815.008-.156.139-.017.217-.052.104-.087.095-.217.147-.33.078-.251-.087-.538.069-.754.096-.07.052.077.114.112.268-.338.754-.538.919-.963.043-.069-.017-.19.052-.234.095.061.13.165.113.252.277.703-.443 1.388-.217 2.134.112.347.433.694.824.754.46.026.902.052 1.284-.156-.07-.164-.252-.217-.417-.234-.051-.078.026-.139.078-.182.174-.095.243-.295.234-.486-.043-.251-.251-.468-.468-.581.009-.156.174-.147.269-.217.104-.122.174-.243.148-.417-.026-.095-.104-.173-.183-.251.009-.139.148-.217.234-.303.114-.877.408-1.683 1.068-2.334.763-.72 1.977-.781 2.905-.356.808.26.981 1.085 1.207 1.761.06-.095.034-.26.086-.373.217-1.648 1.952-2.689 3.236-3.435 1.171-.581 2.325-1.284 3.21-2.377v-.061c-1.085-.087-2.16.13-3.245.243a28.316 28.316 0 0 0-3.851.755c-.312.13-.659.173-.972.304.052.468.382 1.092-.104 1.466-.772.581-1.839.468-2.767.503-.469.329-1.059.572-1.64.416-.138-.034-.217-.225-.399-.165-.243.087-.503.113-.72.252.174.598.356 1.206.616 1.77.069.208-.087.373-.217.494h-.078c-.599.364-1.292.52-1.969.703-.399.069-.893-.026-1.136-.434a14.271 14.271 0 0 1-.539-1.431c-.207-.79-.711-1.51-.615-2.377.408-1.067 1.535-1.727 2.489-2.221.183-.104.365-.182.565-.234.164-.157.39-.148.555-.278-.165-.46-.33-1.076.078-1.475.511-.407 1.118-.59 1.674-.885 1.448-.676 3.036-1.005 4.571-1.465.313-.07.668-.156.955-.2 2.42-.537 4.988-.685 7.452-.624 2.55.017 5.005.303 7.364.858.92.33 1.9.504 2.82.833.182.078.381.13.564.217.911.312 1.804.72 2.61 1.249.434.382.253 1.006.096 1.458l.069.077c.322.07.591.278.903.374.997.546 2.238 1.205 2.654 2.35.009.859-.416 1.588-.616 2.377zm-8.015 3.67s.921-.911 1.035-1.113c.113-.201.299-.558.301-.657 0 0-.138-.577-.881-.615-.743-.038-1.385.554-1.36 1.247.025.693.512.902.905 1.138zm-2.983 2.733c.008.236.042.496.26.597.218.1.227.075.227.075s.402-.68.529-.856c.126-.177.738-.966 1.075-1.504 0 0-1.319-1.142-1.378-2.519 0 0-.017.361-.067.546-.051.185-.067.479.193.621l.017.101s-.252.059-.252.21.21.177.21.294c0 .118-.151.151-.193.159-.042.009-.269.017-.37.387l-.411 1.528s.151.126.16.361zm-4.447 5.123s.126-.063.315-.025c.189.037.416.138.416.138l.176-.101-.592-.579s-.138-.201.013-.201c.151 0 .189-.051.214-.114.025-.063.214-.088.315-.063.1.025.302-.05.327-.126l.957.126.063.088s-.1.441-.037.605c.063.164.214.038.365.227s.542.504.806.491c.265-.012.34-.265.39-.655 0 0-.213.34-.604.29-.391-.051-.718-.101-.844-.832 0 0 .013-.252.126-.403 0 0-.378-.151-.831-.151-.454 0-1.159.139-1.361.265-.201.125-.302.34-.29.403.013.063.152.302.076.617zm-9.611-9.12c-.013-.164-.025-1.033-1.323-1.171 0 0-.851-.002-.929.578-.041.303.602 1.097.765 1.236.164.138.605.569.605.569s.659-.421.833-.703c0 0 .061-.345.049-.509zm1.738 1.846c-.031-.045-.403-.208-.428-.227-.025-.02-.076-.057.019-.177.094-.119.208-.226.138-.283a3.573 3.573 0 0 0-.094-.076s-.176-.012-.132-.1c.044-.089.138-.227.189-.284.05-.056.056-.145.037-.214-.019-.069-.05-.107-.056-.195-.007-.088-.038-.384-.038-.384s-.113.812-.794 1.732c-.287.388-.604.617-.604.617s.019.107.157.265c.139.157 1.058 1.486 1.178 1.681.12.195.233.416.34.416.076 0 .328-.158.391-.252 0 0 .025-.542.189-.806 0 0-.46-1.67-.492-1.713zm4.164 15.414c.026 0 .035-.026.061-.043-.026-.035-.052-.078-.044-.122a.45.45 0 0 1 .261-.13c.069-.113-.087-.277.069-.356.096.026.226.087.321.018-.008-.07-.104-.087-.156-.13-.104-.157-.252-.261-.433-.234-.122.043-.079.13-.113.216l.034.781zm.989-5.247-.146-.107-.12-.786s-.133.014-.146-.146c-.014-.16-.067-.573-.134-.599-.066-.027-.173-.027-.239-.054-.067-.026-.146-.066-.227-.013 0 0-.106 3.955 0 5.114 0 0 .626-.013.772.04v-.093s-.079-.04-.186-.027c-.106.013-.319.027-.412-.04v-.772s.24-.014.332-.147c.094-.133.266-.332.427-.319v-.16s.026-.12.079-.12c.054 0 .094-.026.094-.133 0-.107-.094-1.638-.094-1.638" style="fill:#231f20;fill-opacity:1;fill-rule:evenodd;stroke:none" transform="matrix(8.28833 0 0 -8.28833 -4026.71 670.799)"/><path d="m504.554 79.351.017-.364c-.251.026-.546.06-.807.13-.052.156-.069.338.018.468.269-.052.573-.069.772-.234zM502.836 79.516c0-.13.105-.399-.086-.417-.287-.008-.521-.138-.799-.164-.086.112.009.26-.017.381.087.087.226.052.313.139.182.035.39.147.589.061zM504.554 78.084l.017-.598c-.278.043-.537.061-.833.13-.086.191.018.408-.017.668a.864.864 0 0 0 .365 0c.173-.026.321-.104.468-.2zM502.819 78.284c.087-.234-.009-.417.017-.668-.303-.078-.616-.13-.919-.234v.616c.26.216.555.251.902.286z" style="fill:#00b6f1;fill-opacity:1;fill-rule:nonzero;stroke:#00b6f1;stroke-width:.017;stroke-linecap:butt;stroke-linejoin:miter;stroke-miterlimit:3.86400008;stroke-opacity:1;stroke-dasharray:none" transform="matrix(8.28833 0 0 -8.28833 -4026.71 670.799)"/><path d="M503.521 79.516c.07-.208-.086-.573.2-.616.295-.078.608-.061.85-.252l-.017-.277c-.312.069-.616.173-.954.182-.13-.156-.052-.434-.079-.607l-.034-.313c-.182.07-.555-.165-.468.2-.018.208.165.546-.105.702-.329-.052-.676-.095-.98-.216v.329c.33.139.668.243 1.05.252l.052.052v.598c.121.096.303.035.451.052l.034-.086M510.349 78.371l.364.06v-.034c-.659-.833-1.622-1.006-2.568-1.18-1.188-.191-2.255.104-3.374.234-.069.13-.026.243-.035.399 0 .451-.017.833.017 1.371l.052.078c1.684-.781 3.609-1.328 5.544-.928" style="fill:#ef3e2e;fill-opacity:1;fill-rule:nonzero;stroke:none" transform="matrix(8.28833 0 0 -8.28833 -4026.71 670.799)"/><path d="M495.905 70.919c.469-.59 1.31-.989 1.336-1.787-.113-.078-.251-.225-.434-.148-.165.113-.321.408-.572.295-.13-.078-.208-.234-.148-.381.052-.053.052-.122.07-.182-.139.026-.191.173-.208.286.034.095-.053.243-.148.312-.113.018-.225.035-.312.104-.113.13.173.399-.104.364-.182-.19-.209-.607-.564-.503-.104.174-.312-.069-.391.174a.407.407 0 0 0-.347.06c-.165.174-.191.4-.303.591h-.035c.009-.408.191-.825.59-1.059l.017-.061c-.078-.095-.269.044-.286-.086.156-.087.338-.139.521-.087-.035-.121-.33-.069-.157-.2.157-.017.295.087.452.053v-.053c-.035 0-.053-.043-.078-.06 0-.026.034-.044.06-.069.122-.018.226.182.339.034 1.136-.477 2.195-1.579 2.42-2.793.338-.365.381-.868.451-1.319a2.733 2.733 0 0 0-.104-.937c-.043.304.069.694 0 .989-.026.122-.018.295-.148.347-.138-.113-.026-.208-.034-.347-.027-.26.069-.598-.165-.737-.148 0-.13.156-.182.251.008.33.104.885-.217 1.102-.061-.087.034-.2.052-.286a4.947 4.947 0 0 0-.052-.885c.008-.148.112-.243.199-.347.486-.477 1.102-1.023 1.483-1.605.322-.633-.173-1.267.07-1.935.009-.286-.07-.589-.147-.867 0-.451.208-1.223-.286-1.518.164.391.26.859.216 1.284-.034.009-.061.069-.087.017-.086-.156-.121-.338-.182-.503-.017.217.217.39.053.599-.079 0-.148 0-.2-.061.009-.009-.009.078-.053.095-.13-.026-.198-.199-.32-.234-.078 0-.13-.078-.2-.078.191.208.46.364.59.616.087-.009.2.008.183.113-.044.121-.061.26-.122.373.156.477.399 1.058.069 1.535.087.625-.563.842-.971 1.068-.217.025-.434.138-.617.286l-.077-.087c-.087.043-.139.173-.252.182-.087.243-.225.538-.486.633-.303-.069-.564.087-.807.217-.06-.035-.043-.112-.026-.148.131-.381.608-.121.746-.503.209-.355.469-.624.868-.728.156-.095.356-.104.521-.191-.347-.26-.833-.303-1.25-.217-.39 0-.798.113-1.171.234-.095.07-.234.07-.321.157-.217.156-.529.312-.546.616-.043.216.061.364.13.563.373-.434.937-.59 1.518-.633.009.017.044.026.035.052-.235.156-.547.13-.798.234-.278.113-.616.312-.72.633-.009.252.078.469.069.72.451-.095.937.035 1.18.434a.9.9 0 0 1-.165.885c-.147.095-.295.182-.468.2.147.052.321.017.468-.07.199-.035.208-.52.381-.182a.746.746 0 0 1-.147.538c.191.061.009.234.018.347-.113.139-.313.225-.252.416-.156.304-.494.547-.815.521.069.034.164-.009.216.069-.164.399-.685.035-.884.434-.764.711-.746 1.657-.504 2.602.122.304.382.573.669.79.199.06.494 0 .633.26.355.156.651-.173.937-.347.077-.156.277-.269.303-.451" style="fill:#bbbdbf;fill-opacity:1;fill-rule:nonzero;stroke:none" transform="matrix(8.28833 0 0 -8.28833 -4026.71 670.799)"/><path d="M500.494 67.145c.365-.208.486-.581.868-.719.234-.139.486-.322.668-.521-.087-.026-.13-.113-.217-.113-.156.252-.399.451-.633.599-.035-.183.225-.278.286-.434l.113-.182c-.061-.018-.208-.157-.217.017-.113.234-.217.477-.434.668-.043 0-.104 0-.113-.052l.217-.703-.035-.043c-.13.243-.052.65-.321.816-.095-.131.009-.278.053-.4.025-.13.051-.269.086-.39-.043-.078-.13-.008-.2 0 .027.312-.034.633-.268.859-.26-.053-.287.295-.521.399-.277.165-.642.382-.954.165-.121-.165-.486-.096-.347-.399l.087-.234c-.13-.625-.096-1.25-.304-1.84-.061.209-.095.451-.182.668-.026.261-.26.503-.122.772.139.4.217.833.339 1.25.034.225.26.399.468.451.633-.044 1.093-.495 1.683-.634M509.621 67.644c.001-.017-.008-.043.018-.051.009.008.018.017.017.035.258-.352.249-.846.456-1.233.021-.217.189-.431.08-.632-.176-.341-.213-.733-.284-1.107-.202.595-.24 1.289-.354 1.903.067.122.151.28.062.417-.036.043-.088.059-.149.05-.202.135-.438.252-.706.169-.344-.127-.609-.366-.821-.665-.026.035-.087.016-.122.016-.221-.221-.285-.535-.236-.829a.254.254 0 0 0-.199-.064c-.023.295.147.506.168.784l-.061.051c-.231-.204-.19-.541-.29-.812-.017 0-.026-.018-.034-.027.004.252.156.497.186.767-.026.043-.07.034-.113.033-.205-.212-.347-.483-.456-.745-.043-.027-.122.014-.165.049.05.087.109.183.16.271.032.114.291.205.193.35-.222-.185-.479-.372-.622-.626-.062.033-.115.085-.185.101.076.157.239.247.359.37.112.011.137.116.231.169.25.108.463.295.624.532.103.071.24.169.334.257.666.099 1.198.915 1.891.519l.018-.052" style="fill:#bbbdbf;fill-opacity:1;fill-rule:nonzero;stroke:none" transform="matrix(8.28833 0 0 -8.28833 -4026.71 670.799)"/><path d="M503.869 66.443c.035-.139.104-.261.112-.417.018-.191-.034-.346-.095-.503-.199-.598-.859-.997-1.405-1.214-.946-.304-2.047-.356-2.941.095-.356.251-.763.572-.711 1.067-.052.209.095.338.13.521a.55.55 0 0 0 .399.286c.182.052.303-.087.433-.139.122-.104.139-.252.183-.382.069-.234-.451-.537 0-.668l.268-.052c.218-.086.478-.061.721-.095.711.052 1.509.165 1.934.815.122.2-.156.339-.112.521-.027.139.034.234.095.364.121.182.338.2.538.165.165-.087.364-.182.451-.364M505.387 66.512c0-.182.017-.416-.13-.555-.053-.269.208-.434.381-.599.755-.424 1.917-.572 2.724-.165.043.174-.06.235-.122.365-.008.226-.06.382.105.564a.608.608 0 0 0 .633.139c.338-.235.416-.677.338-1.068-.147-.476-.615-.789-1.076-.937-.077 0-.181-.052-.277-.086-1.353-.243-2.845.044-3.626 1.171-.208.356-.156.92.095 1.249a.71.71 0 0 0 .668.2c.096-.078.235-.148.287-.278M504.285 66.876v-.069c-.451-.113-.798.269-1.032.59.13.113.304.017.451.017.243-.086.468-.303.581-.538M505.022 67.111c-.147-.018-.303-.113-.468-.13l-.287.347c.122.069.313.156.469.069.13-.052.217-.174.286-.286M503.131 67.093c-.182 0-.251-.138-.416-.164l-.416.433.017.052c.338.061.633-.06.815-.321M506.94 67.197a.314.314 0 0 0 0-.303c-.096-.07-.191-.182-.313-.104-.234.121-.303.338-.451.538.174.086.33.069.512.069.078-.061.199-.087.252-.2M506.038 67.076c0-.095.155-.13.121-.234-.165-.113-.382-.096-.555-.018-.2.096-.321.33-.417.521.183.113.278.009.486.017a.893.893 0 0 0 .365-.286M502.368 66.929v-.053c-.329-.078-.746-.121-.954.182-.035.087-.009.191.034.27.374.182.694-.096.92-.399" style="fill:#f0b83d;fill-opacity:1;fill-rule:nonzero;stroke:none" transform="matrix(8.28833 0 0 -8.28833 -4026.71 670.799)"/><path d="M503.001 72.437c.052-.095-.034-.243.07-.312.216.026.581-.148.667.147v.148c.157.052.348.034.512.017.07-.095-.017-.304.139-.312.182.078.512-.096.581.147v.165c.209.087.451-.017.668.017.044-.069.078-.156.035-.234-.095-.034-.234 0-.269-.13a.406.406 0 0 0-.217-.338c-.095-.087-.312.026-.303-.165-.018-.07.026-.156-.044-.2-.529-.06-1.119-.026-1.622.018-.069.086.009.277-.165.329-.147.044-.347.018-.433.174-.026.087-.009.182-.104.243-.053.043-.148-.026-.183.052-.095.425.46.234.668.234M504.823 71.032c-.035-.113.104-.382-.121-.33l-1.389.017c-.086.105-.008.235 0 .347.451.026.989.026 1.475 0l.035-.034M504.84 70.45l.044-1.266c-.452-.017-1.067 0-1.649.017.018.417-.043.937.052 1.319l.061.035 1.44-.018.052-.087M505.005 69.002c.087-.139.026-.347.069-.503l-.069-.035-1.969.018c-.035.164 0 .346.035.502.685.078 1.275.009 1.934.018M505.274 68.178a.405.405 0 0 0 0-.347c-.789.043-1.666-.018-2.472.052-.044.087 0 .216.034.312.833.026 1.666.026 2.438-.017" style="fill:#bbbdbf;fill-opacity:1;fill-rule:nonzero;stroke:none" transform="matrix(8.28833 0 0 -8.28833 -4026.71 670.799)"/><path d="M502.897 74.406c-.139-.156.191-.373-.078-.381-.069.346-.581-.035-.451.399-.035.069-.191.06-.156.138a.435.435 0 0 1 .234.183c-.095.182-.278-.078-.381.034.026 0 .234-.017.286.096-.018.199-.278.052-.4.121l-.034-.052c-.061.278.104.495.078.737-.07.087.035.148.052.217.173-.529 1.015-.841.85-1.492M506.688 74.493c.018-.078-.026-.182-.095-.252-.148-.13-.426-.095-.469-.303.157-.13.269.06.417.069a.59.59 0 0 1 .346.07c.139.121.183.277.252.433.043.035.104.018.156.018-.217-.252.078-.746-.303-.902a.429.429 0 0 0-.417.069c-.078.078-.147.173-.251.165-.104-.183.225-.278.199-.469a.402.402 0 0 0-.199-.416h-.252c.087.052.234.069.286.199.078.174-.06.304-.086.452a.538.538 0 0 1-.504.199c-.242-.061-.546-.191-.598-.468-.035-.2-.035-.469-.052-.634a.92.92 0 0 0 .052.92c.113.208.399.147.451.399.286.269.824.104.954.564.069 0 .069-.078.113-.113M503.253 73.894c-.026-.121-.104-.295 0-.407.13-.018.182.147.295.19l.39.079c-.174-.113-.338-.287-.52-.382-.061-.035-.079.052-.131.052-.103-.061-.077-.226-.216-.269.043.078.086.173.06.252-.026.017-.043.052-.078.034-.095-.086-.095-.208-.199-.286-.026.052 0 .156-.087.2-.147-.018-.07-.4-.251-.165-.096.008-.139-.113-.217-.139.034.026.034.173-.07.191l-.182-.139-.017.165c-.139.06-.226-.113-.33-.165-.052.095.313.156.113.286-.113.018-.165-.121-.269-.121.052.165.252.104.304.251.155-.095.39-.06.537.035.226.26.564.33.868.338M504.233 73.521c-.052-.191-.069-.494.017-.685v-.13c-.234-.043-.555.017-.729-.052-.043-.122.018-.217-.051-.33l-.217.018c-.069.112.078.321-.122.364-.043-.017-.112-.017-.147.035-.017.156.13.191.234.251.165.208.425.278.599.469.138.026.26.138.338.277.174.009.026-.139.078-.217M504.918 76.566c.061.035.052.13.139.096.174-.113.078-.504.382-.399.104-.182-.373-.148-.182-.365.06.018.147.035.164-.052-.008-.087.018-.208-.086-.234h-.044c0 .069.096.156-.017.2-.078.017-.104-.044-.139.034.009.044.087.087.035.148-.096.017-.182.182-.286.069-.061.035-.026.139-.113.13-.069.018-.147-.035-.2-.095-.026.225-.043.408.018.651.13-.027.199-.174.329-.183M501.951 76.228c-.208-.078.044-.312-.138-.416.009-.148.052-.269-.035-.4-.13.087-.191.243-.252.382.053.174.096.373.208.503l.044.131c.087-.027.113-.139.173-.2M504.19 76.15c0-.026 0-.095.06-.121h.052c.018-.053-.052-.044-.052-.087-.008-.087.061-.165.139-.183.061-.008.104 0 .147.035-.069-.026-.164-.104-.251-.069-.13.06.035.286-.147.304-.122-.105-.052-.304-.139-.4-.035-.147-.174-.277-.095-.451-.044-.173-.2-.191-.339-.251-.156-.035-.321-.035-.451-.104.061.364.59.208.685.589-.121.096-.216-.086-.329-.121l-.183-.061c-.017.087.061.165.113.235.104.034.226.156.338.078.096.008.052.13.044.182-.095.087-.061.199-.018.304l.035.034c.044-.069.113-.139.2-.147.104.104-.07.286.069.399.07-.052.199-.026.122-.165M504.216 74.875c-.139-.183-.261-.33-.261-.547a.131.131 0 0 1 .131-.052c-.122-.278-.443-.234-.634-.416.009.251.399.364.417.65-.026.035-.052.044-.087.035-.147-.174-.338-.347-.469-.538-.103.226.391.399.322.738.216-.026.381.459.581.13M503.435 74.71c.061-.252-.286-.347-.339-.555-.086.112-.069.208-.025.355.052.157.216.191.364.2M504.536 75.326c-.008-.044-.051-.061-.069-.096h-.078c-.017.052.035.079.043.113.035-.008.078.009.104-.017M505.204 75.144c.027-.052-.034-.052-.051-.07-.096 0-.104.104-.131.174 0 .034.009.095.052.078a.21.21 0 0 1 .13-.182M504.936 75.013c.078-.069.147-.138.138-.251-.008.009-.017.026-.034.017-.009-.052.034-.104-.035-.156-.095.096-.026.339-.2.39-.112-.077-.008-.199-.017-.303-.078.087-.252.13-.182.269.087.052.122.191.234.217l.096-.183M504.649 74.424c-.086.078-.06.199-.164.268.086-.043.173-.156.164-.268M504.485 74.155l-.053-.113c.044.182-.303.329-.025.468.051-.112.129-.234.078-.355" style="fill:#f0b83d;fill-opacity:1;fill-rule:nonzero;stroke:none" transform="matrix(8.28833 0 0 -8.28833 -4026.71 670.799)"/><path d="m504.258 75.404-.08.06s-.021-.07.019-.121c.041-.05.061.061.061.061" style="fill:#f0b83d;fill-opacity:1;fill-rule:nonzero;stroke:none" transform="matrix(8.28833 0 0 -8.28833 -4026.71 670.799)"/><path d="M504.718 75.476s.104.078.186.08c-.029-.003-.115-.006-.115-.006s-.041.066-.041.192c-.025-.137-.066-.222-.066-.222l.036-.044" style="fill:#f0b83d;fill-opacity:1;fill-rule:evenodd;stroke:none" transform="matrix(8.28833 0 0 -8.28833 -4026.71 670.799)"/><path d="M513.94 71.517c.373-.112.72-.503.85-.867.252-.972.165-2.065-.685-2.706-.251-.061-.589 0-.703-.278.026-.113.148 0 .2-.087-.295.035-.547-.173-.746-.399-.018-.095-.104-.191-.07-.286-.173-.148-.312-.313-.286-.538.018-.035.052-.044.087-.044-.13-.182-.217-.433-.104-.624.017-.026.035-.052.069-.043.113.199.252.338.468.399h.269c-.234-.07-.52-.165-.607-.434a.74.74 0 0 1 0-.685c.208-.295.556-.486.955-.452l.181.053c.018-.339.209-.755-.095-1.007-.338-.39-.824-.442-1.283-.546-.018-.017-.053-.035-.053-.069.131-.105.286.043.451.017.4.121.799.234 1.102.581.095-.226.2-.529.052-.763-.174-.2-.416-.399-.668-.486-.607-.287-1.344-.434-2.056-.321h-.052c-.034.043-.121.043-.182.069-.061.087-.243.026-.234.165.581.13 1.171.434 1.449.989.164.269.65.104.685.529-.096.069-.182-.061-.278-.095-.208-.053-.373-.13-.59-.087-.26-.104-.39-.391-.45-.633-.113-.009-.166-.139-.252-.182-.13.19-.261-.122-.399-.148-.131-.035-.209-.008-.33-.07-.33-.199-.807-.355-.919-.789.034-.382-.278-.694-.157-1.032.035-.365.391-.737.104-1.102-.034-.078.053-.138.105-.147.112.043.121-.07.165-.122.147-.173.355-.312.529-.468-.2-.017-.391.147-.512.286-.026-.026-.088-.026-.088-.069.131-.226.235-.529.504-.616.035-.026.009-.078.052-.087.018.095.13.035.183.035.017-.026.043-.035.034-.061-.408-.113-.555.33-.755.581a.181.181 0 0 1-.086.182c-.078 0-.165 0-.183-.069.087-.434.208-.894.59-1.215-.485.218-.442.799-.668 1.189-.052.026-.095-.035-.104-.069.018-.443.07-.876.269-1.241-.278.052-.295.373-.356.59-.043.503.114.989-.095 1.431.009.529.069 1.154-.052 1.692.044.234.035.494.147.703.2.26.4.511.642.728l.027-.017.069.139.833.832c.043.356-.079.781.017 1.154 0 .061.104.13.017.182-.147-.06-.165-.234-.216-.364-.036-.338.069-.668-.096-.954-.13-.061-.182.009-.217.13 0 .269-.078.512 0 .754a.201.201 0 0 1-.052.166c-.182-.044-.095-.261-.139-.382v-.954c-.208.798-.147 1.648.356 2.342.199 1.058 1.05 2.09 2.056 2.533.191.069.381.356.599.156.034 0 .069.009.086.035.017.078-.069.06-.086.113.13.121.303-.096.503-.018.034.009.017.044.017.07-.061.052-.139.043-.2.112a.493.493 0 0 1 .512.139c-.095.061-.19-.043-.268.035.052.112.19.234.303.33.113.251.364.494.269.789-.139-.043-.113-.217-.165-.321-.087-.113-.095-.295-.269-.321-.147 0-.269.009-.382-.13-.138.113-.243-.148-.39-.052-.278.06-.243.407-.468.52-.122-.13.086-.416-.182-.451-.131-.026-.278-.078-.331-.217.009-.165.018-.347-.155-.416l-.061.017c.061.113.156.234.095.382-.017.095-.13.139-.199.182-.364.043-.581-.624-.937-.2-.06.998 1.171 1.31 1.475 2.126.277.26.598.555.997.529.165-.104.304-.286.538-.252" style="fill:#bbbdbf;fill-opacity:1;fill-rule:nonzero;stroke:none" transform="matrix(8.28833 0 0 -8.28833 -4026.71 670.799)"/><path d="M514.287 61.914c-.607-.659-1.449-.928-2.316-.867-.217.043-.365.104-.573.182-.225.113-.303.356-.416.556a3.683 3.683 0 0 1 2.655.451c.173.147.355.286.537.433.087-.234.286-.503.113-.755" style="fill:#bbbdbf;fill-opacity:1;fill-rule:nonzero;stroke:none" transform="matrix(8.28833 0 0 -8.28833 -4026.71 670.799)"/><path d="M514.625 61.602c.07-.121.061-.295.035-.434-.286-.529-.894-.745-1.457-.841-.616.009-1.423-.139-1.683.607l-.017.018c.165.017.39-.113.615-.087a2.769 2.769 0 0 1 2.325.971c.139-.017.104-.165.182-.234" style="fill:#bbbdbf;fill-opacity:1;fill-rule:nonzero;stroke:none" transform="matrix(8.28833 0 0 -8.28833 -4026.71 670.799)"/><path d="M514.99 60.717c.069-.26-.148-.407-.252-.59-.633-.477-1.605-.798-2.351-.347-.095.139-.208.269-.286.417.408-.035.946-.174 1.388-.018.399.087.737.295 1.067.556.087.095.174.243.286.277l.148-.295" style="fill:#bbbdbf;fill-opacity:1;fill-rule:nonzero;stroke:none" transform="matrix(8.28833 0 0 -8.28833 -4026.71 670.799)"/><path d="M515.276 59.98c-.069-.46-.59-.833-1.006-.954-.416-.122-.972-.191-1.318.121l-.217.252c.346.009.832-.035 1.188.112.277.061.555.252.815.4.148.13.226.329.399.433.078-.104.07-.251.139-.364" style="fill:#bbbdbf;fill-opacity:1;fill-rule:nonzero;stroke:none" transform="matrix(8.28833 0 0 -8.28833 -4026.71 670.799)"/><path d="M515.459 59.442c.069-.199.034-.451-.114-.599-.346-.468-.936-.607-1.509-.503-.234.07-.382.2-.529.391.781-.087 1.665.182 2.021.945.087-.034.078-.165.131-.234" style="fill:#bbbdbf;fill-opacity:1;fill-rule:nonzero;stroke:none" transform="matrix(8.28833 0 0 -8.28833 -4026.71 670.799)"/><path d="M515.562 58.228c-.329-.425-.937-.469-1.405-.382-.13.052-.217.182-.286.295.641-.096 1.353.13 1.718.737.095-.19.112-.468-.027-.65" style="fill:#bbbdbf;fill-opacity:1;fill-rule:nonzero;stroke:none" transform="matrix(8.28833 0 0 -8.28833 -4026.71 670.799)"/><path d="M515.693 57.542c-.348-.243-.868-.312-1.267-.147-.095.035-.104.147-.156.217.512-.018 1.102.043 1.44.529.078-.174.095-.443-.017-.599M515.64 56.892c-.268-.165-.693-.148-.997-.018-.052.079-.139.165-.104.252.425-.078.858.035 1.206.252-.035-.122.078-.391-.105-.486M515.605 56.423c-.242-.199-.624-.156-.884-.035-.104.079-.069.148-.078.27.295-.087.729-.157 1.015.052a.565.565 0 0 0-.053-.287M515.51 56.172c-.043-.174-.138-.321-.234-.469-.199-.035-.434-.043-.572.122-.052.13-.122.225-.044.364.269-.087.582-.147.85-.017M514.938 55.521c.069.052.164.035.234.018-.373-.512-.885-.903-1.466-1.007-.408.009-.807-.147-1.084.191-.052.13.008.26.095.364.468.347 1.024.347 1.553.564l.017-.026c-.121-.243-.39-.451-.616-.59v-.052c.243-.078.39.191.616.235.026-.148.191-.148.287-.165.017.017.051.034.051.069-.094.069-.208.104-.234.234.044.13.061.269.183.365.078-.122.225-.174.364-.2M513.107 72.237l-.104.105-.051-.07c.025-.017.008-.052.017-.069-.061.156-.113.338-.096.503.122-.139.217-.286.234-.469M512.7 72.073c.017-.035-.105.069-.13-.035v-.087c-.078.087-.157.2-.104.321.095-.017.19-.104.234-.199" style="fill:#bbbdbf;fill-opacity:1;fill-rule:nonzero;stroke:none" transform="matrix(8.28833 0 0 -8.28833 -4026.71 670.799)"/><path d="M509.646 64.655c.052-.39.243-.719.321-1.101-.173-.148-.399.087-.52-.148-.286-.355.139-.945-.304-1.24-.252-.547-.078-1.24-.061-1.77a2.953 2.953 0 0 1 .079-1.284c-.4 1.597-1.172 3.297-.452 4.945.191.312.495.651.885.651l.052-.053M513.94 72.454c.052-.173-.174-.329-.017-.433.191.138.182.503.486.52 0-.199-.122-.39-.157-.59l.035-.043c.217.13.217.416.486.46.017-.226-.148-.417-.217-.616.139-.061.182.121.304.182.078.026.139.095.234.069-.069-.182-.312-.312-.269-.503.174 0 .252.286.451.269-.087-.191-.364-.295-.286-.503.19.035.286.295.503.251-.052-.182-.425-.303-.304-.529.131.035.217.2.373.165-.13-.104-.39-.217-.338-.416.191.052.347.286.555.199-.025-.06-.139-.087-.121-.182.017-.095.121-.069.182-.121-.147.078-.304.008-.417-.078.036-.139.2-.018.27-.105-.044-.017-.104 0-.131-.052.043-.13.209-.164.347-.164.148-.07.217-.217.287-.347-.243 0-.347.217-.573.234-.052 0-.078-.078-.034-.104.199-.208.581-.339.589-.668-.217.104-.407.278-.668.286-.069-.173.165-.182.252-.269.121-.113.225-.234.252-.382-.157.156-.365.348-.591.33-.034-.026-.017-.078-.017-.113.026-.078.113-.034.156-.069.373-.243.313-.703.478-1.05-.365.121-.347.573-.695.703-.121-.121.131-.234.165-.356.174-.312.287-.746.113-1.084-.486-.486-1.223-.712-1.371-1.423-.217-.494-.971-.408-.945-1.032-.122.104-.044.278-.018.399.191.364.712.217.816.616-.026.043-.07.035-.113.035-.321-.26-.893-.322-.954-.833-.018-.131.069-.226.095-.347-.164.078-.286.277-.312.451.017.243.131.451.364.564.338.087.738.156 1.024.433.009.035 0 .07-.035.087-.225-.078-.494-.156-.737-.069-.26.104-.555-.026-.781-.165 0 .139.13.243.234.33.443.164.876-.139 1.362-.061.053.052.104.122.087.217.087.034.2.078.235.165-.087.043-.252 0-.365.034-.303.113-.277.538-.651.547h-.32c.112.104.285.104.433.069.399-.139.486-.772 1.006-.538.061.044.157.018.2.105l-.069.069c-.174.026-.382-.043-.521.06-.165.209-.182.495-.433.651.13.018.268-.035.398-.095.243-.278.512-.608.92-.469.052.035.13.035.173.113l-.017.052c-.251.035-.642-.052-.772.269-.044.061 0 .121.018.183.181-.192.459-.443.798-.348.087.078.277.052.286.217-.113.148-.208-.043-.33-.035-.148-.008-.295 0-.39.113-.183.469.382.764.321 1.258.182.963-.044 2.143-.954 2.75-.235.13-.487.243-.747.321-.069.139.122.234.183.33.025.095.095.182.077.303.062-.043.096-.139.122-.217" style="fill:#f0b83d;fill-opacity:1;fill-rule:nonzero;stroke:none" transform="matrix(8.28833 0 0 -8.28833 -4026.71 670.799)"/><path d="M513.992 66.547c-.364-.104-.668.477-1.102.243.165.182.417.165.633.121.192-.069.252-.347.469-.364M514.608 64.352c-.061-.26-.199-.642-.017-.902.078-.174.234-.295.364-.417-.138-.234-.26-.52-.078-.763.113-.208.538-.217.278-.503-.07-.156-.061-.286-.061-.469-.477 1.05-.928 2.187-.868 3.392.113-.121.234-.286.382-.338M515.658 60.648c-.035-.208-.235-.39-.113-.616.095-.173.252-.33.416-.416-.078-.148-.121-.321-.182-.487-.225.625-.338 1.302-.59 1.918.131-.165.313-.269.469-.399M516.109 58.427l-.182-.199c-.044.173-.052.364-.07.546.062-.156.2-.182.252-.347" style="fill:#f0b83d;fill-opacity:1;fill-rule:nonzero;stroke:none" transform="matrix(8.28833 0 0 -8.28833 -4026.71 670.799)"/><path d="M509.457 64.958c-.056-.017.064.087.072.151.008.065.04-.144.04-.144s-.056.008-.112-.007" style="fill:#231f20;fill-opacity:1;fill-rule:evenodd;stroke:none" transform="matrix(8.28833 0 0 -8.28833 -4026.71 670.799)"/><path d="m512.752 66.494.069.053h.052l-.121-.053" style="fill:#bbbdbf;fill-opacity:1;fill-rule:nonzero;stroke:none" transform="matrix(8.28833 0 0 -8.28833 -4026.71 670.799)"/><path d="M513.775 65.124c.069-.121.027-.277.043-.416-.052-.078-.129 0-.181 0-.105.069-.165.19-.114.312.044.061.062.156.131.191.087.035.078-.078.121-.087" style="fill:#f0b83d;fill-opacity:1;fill-rule:nonzero;stroke:none" transform="matrix(8.28833 0 0 -8.28833 -4026.71 670.799)"/><path d="M513.185 71.118a.309.309 0 0 0 .287-.052c.044-.095-.07-.104-.104-.147-.365-.087-.651-.469-1.067-.269.017.096.095.174.139.269a.569.569 0 0 0 .277.217c.156-.009.33-.234.468-.018" style="fill:#231f20;fill-opacity:1;fill-rule:nonzero;stroke:none" transform="matrix(8.28833 0 0 -8.28833 -4026.71 670.799)"/><path d="M515.745 60.214c-.07.235.564.573 0 .616-.105.07-.235.139-.286.269.338.078.684.13 1.049.165.052-.035.13-.018.173-.078.104-.052.078-.208.061-.304-.095-.095-.2-.217-.295-.269 0-.035-.069-.087 0-.113-.21-.128-.633-.269-.702-.286" style="fill:#bbbdbf;fill-opacity:1;fill-rule:nonzero;stroke:none" transform="matrix(8.28833 0 0 -8.28833 -4026.71 670.799)"/><path d="M516.994 65.592c.165-.164.277-.381.503-.485.052.008.078.061.095.104.235-.269.33-.642.469-.972.035 0 .078-.009.104.035.095-.251.035-.477.051-.772.174-.286.062-.677-.034-.963-.061-.243-.355-.295-.416-.538.087-.104.156 0 .251.018.208.034.365-.044.512-.148-.069-.217-.208-.451-.433-.555-.052-.018-.07-.07-.052-.13.172-.131.425-.078.572-.286.182-.191.251-.426.347-.651-.173-.087.009-.243-.017-.373-.027-.2.242-.451.017-.616-.061-.226-.139-.443-.13-.685-.191-.226-.252-.504-.538-.634-.156-.095-.304-.26-.416-.399-.087.174.078.364.069.564.13.417.39.824.217 1.31-.113.451-.495.798-.937.911-.434.052-.885.052-1.267-.061l-.216-.052c.338.125.487.193.702.286.191.131.469.252.512.512-.026.105-.035.226-.095.321-.217.2-.46.07-.721.113l-.381-.043c.685.459 1.206 1.214 1.336 2.047.086.702-.07 1.457-.139 2.142h.035" style="fill:#f0b83d;fill-opacity:1;fill-rule:nonzero;stroke:none" transform="matrix(8.28833 0 0 -8.28833 -4026.71 670.799)"/><path d="M517.315 65.055c.321-.954.208-2.048-.182-2.924-.035-.069-.113-.156-.191-.095-.061.139.069.286.138.417.261.702.434 1.509.2 2.272-.043.122-.078.251-.035.382.026 0 .052-.035.07-.052M517.931 63.667v-.061h-.052v.095c.025 0 .052-.008.052-.034M517.714 62.4c-.13-.164-.191-.434-.434-.468-.104.225.226.321.269.537.191.296.234.651.312.998l.052.035c.018-.382-.086-.755-.199-1.102M518.495 60.379c.191-.313.286-.737.191-1.102-.07.095-.01.182-.053.286-.078.443-.286.86-.702 1.154-.009.061.026.139.113.113.172-.121.32-.278.451-.451M518.416 58.991c-.078-.399-.181-.833-.399-1.197-.026.017-.035.061-.035.112.035.088.088.174.096.287.087.312.2.616.235.954-.018.391-.209.746-.486 1.05-.018.043 0 .095.052.104.434-.287.599-.842.537-1.31" style="fill:#231f20;fill-opacity:1;fill-rule:nonzero;stroke:none" transform="matrix(8.28833 0 0 -8.28833 -4026.71 670.799)"/><path d="M519.804 55.756c.07-.573-.485-1.085-.902-1.389l-.321-.199c-.173.39-.321.833-.434 1.266.348.295.79.373 1.232.486.157-.078.33.026.425-.164zM520.854 54.957c.191-.815.729-1.544.581-2.472-.572-1.223-1.917-1.787-3.036-2.308-.13-.034-.252-.086-.399-.086-.33.893-.581 1.813-.824 2.741.113.06.303.043.434.13 1.188.399 2.559 1.015 3.062 2.325.086-.061.122-.217.182-.33z" style="fill:#00b6f1;fill-opacity:1;fill-rule:nonzero;stroke:#fff;stroke-width:.017;stroke-linecap:butt;stroke-linejoin:miter;stroke-miterlimit:3.86400008;stroke-opacity:1;stroke-dasharray:none" transform="matrix(8.28833 0 0 -8.28833 -4026.71 670.799)"/><path d="M516.092 52.962c-.018-.078-.105-.147-.165-.182-.139-.087-.269-.174-.417-.234.087.138.356.346.582.416z" style="fill:#00b6f1;fill-opacity:1;fill-rule:nonzero;stroke:#00b6f1;stroke-width:.017;stroke-linecap:butt;stroke-linejoin:miter;stroke-miterlimit:3.86400008;stroke-opacity:1;stroke-dasharray:none" transform="matrix(8.28833 0 0 -8.28833 -4026.71 670.799)"/><path d="M494.066 51.027c1.457-.425 2.898-.867 4.407-1.153 1.197-.321 2.524-.417 3.826-.547 1.899-.243 3.825.052 5.629.235 1.406.199 2.767.52 4.104.901 1.579.443 3.183.816 4.562 1.735l.348.4.069-.07c.26-1.032.599-2.03.954-3.019.087-.355.174-.824-.138-1.084-2.377-1.353-4.971-1.986-7.66-2.576-.547-.061-1.137-.174-1.675-.252-1.951-.243-4.111-.294-6.124-.243-.694.027-1.327.087-2.004.165-.997.043-1.934.252-2.889.417-2.507.537-5.031 1.187-7.252 2.437-.278.199-.338.494-.286.798.26.954.633 1.856.902 2.811.061.225.104.451.217.65.833-.911 1.943-1.223 3.01-1.605z" style="fill:#00b6f1;fill-opacity:1;fill-rule:nonzero;stroke:#fff;stroke-width:.017;stroke-linecap:butt;stroke-linejoin:miter;stroke-miterlimit:3.86400008;stroke-opacity:1;stroke-dasharray:none" transform="matrix(8.28833 0 0 -8.28833 -4026.71 670.799)"/><path d="M514.088 52.546a1.69 1.69 0 0 0-.998-.235c-.035.104.13.07.182.139.278.078.512.078.816.096zM512.89 51.53a1.151 1.151 0 0 0-.45-.104c-.044.052-.035.157-.035.217l.485-.113z" style="fill:#00b6f1;fill-opacity:1;fill-rule:nonzero;stroke:#00b6f1;stroke-width:.017;stroke-linecap:butt;stroke-linejoin:miter;stroke-miterlimit:3.86400008;stroke-opacity:1;stroke-dasharray:none" transform="matrix(8.28833 0 0 -8.28833 -4026.71 670.799)"/><path d="M520.369 56.207c.32-.721-.131-1.406-.634-1.892-.651-.572-1.44-.902-2.238-1.162l-.382-.052c.035.086-.069.13-.035.217 1.12.364 2.282.841 2.924 1.986.078.191.096.425 0 .616-.2.269-.486.191-.772.182-.451-.13-.902-.243-1.284-.529l-.052-.121c.174-.46.304-.929.451-1.397-.087-.061-.208-.104-.303-.156-.191.277-.226.659-.382.971-.017.33-.486.755-.052.998.65.339 1.362.599 2.108.668.234-.009.494-.104.651-.329M494.335 52.146c.312-.069.711-.129.945.122.07.182-.147.269-.242.347-.486.234-1.102.208-1.657.234-.087.07-.174.122-.252.217.677.078 1.397-.043 2.039-.182.208-.147.546-.191.599-.503a.399.399 0 0 0-.218-.452c-.503-.208-.936-.086-1.466-.017-.52.096-.962.391-1.353.807-.304.295-.633.668-1.049.529-.078-.078-.088-.208-.052-.312l.095-.156c.685-.538 1.466-.833 2.256-1.102.286-.087.598-.225.919-.312 1.934-.512 3.765-1.111 5.83-1.319.858-.147 1.856-.182 2.723-.268l.035.034a29.07 29.07 0 0 1 7.208.868c.512.138.955.277 1.475.399a19.04 19.04 0 0 1 3.375 1.188c.321.243.946.347.851.885-.07.139-.253.113-.382.095-.703-.312-1.111-1.215-1.892-1.319-.624-.069-1.379-.381-1.839.2-.008.148-.008.304.087.417.416.398.998.407 1.553.503h.998c-.166-.443-.677-.139-.964-.252-.381-.06-.824-.069-1.136-.347-.035-.069-.095-.164-.017-.234.425-.321 1.006-.035 1.448.113.781.399 1.353 1.509 2.377 1.153.13-.051.217-.199.235-.329-.009-.33-.235-.616-.504-.79-.589-.459-1.283-.711-1.969-.98a39.241 39.241 0 0 0-7.399-1.709c-.738-.035-1.484-.147-2.239-.182a28.33 28.33 0 0 0-5.291.434c-.139-.035-.269.06-.416.052-2.273.512-4.537 1.006-6.654 1.951-.495.287-1.327.634-1.215 1.354.104.199.295.278.504.321 1.075-.035 1.63-1.275 2.654-1.458" style="fill:#f0b83d;fill-opacity:1;fill-rule:nonzero;stroke:none" transform="matrix(8.28833 0 0 -8.28833 -4026.71 670.799)"/><path d="m489.894 55.469-.434-1.249c-.538.26-1.041.719-1.258 1.301-.009.121-.009.252.069.347.339.165.712 0 1.032-.078.209-.087.417-.208.591-.321zM487.785 54.532c.781-.963 1.944-1.301 3.037-1.666-.026-.32-.174-.633-.243-.954-.156-.512-.321-1.014-.486-1.518-.104-.078 0-.39-.234-.269-1.033.338-2.013.833-2.828 1.657-.356.399-.686.893-.495 1.432.183.685.503 1.318.703 2.004l.078.138c.104-.295.269-.581.468-.824z" style="fill:#00b6f1;fill-opacity:1;fill-rule:nonzero;stroke:#fff;stroke-width:.017;stroke-linecap:butt;stroke-linejoin:miter;stroke-miterlimit:3.86400008;stroke-opacity:1;stroke-dasharray:none" transform="matrix(8.28833 0 0 -8.28833 -4026.71 670.799)"/><path d="M492.531 52.563c-.217.086-.495.234-.573.434.226-.07.408-.269.573-.434zM494.951 52.381c0-.104-.13-.026-.182-.07-.243.052-.564.078-.773.252.339-.017.678-.017.955-.182zM495.654 51.661c-.035-.078 0-.2-.087-.235l-.417.122c.166.052.339.069.504.113z" style="fill:#00b6f1;fill-opacity:1;fill-rule:nonzero;stroke:#00b6f1;stroke-width:.017;stroke-linecap:butt;stroke-linejoin:miter;stroke-miterlimit:3.86400008;stroke-opacity:1;stroke-dasharray:none" transform="matrix(8.28833 0 0 -8.28833 -4026.71 670.799)"/><path d="M489.824 56.189c.269-.139.573-.208.798-.451-.061-.382-.251-.703-.347-1.067-.121-.234-.13-.512-.269-.738-.112.018-.225.096-.303.148.026.217.13.468.173.685.096.217.2.434.252.668.052.182-.156.252-.269.322-.469.268-1.05.451-1.588.398a.469.469 0 0 1-.303-.269c-.104-.798.65-1.353 1.223-1.769.546-.33 1.119-.564 1.717-.764.044-.06 0-.165-.034-.234a5.975 5.975 0 0 0-1.97.781c-.763.425-1.483 1.206-1.353 2.09.052.287.33.53.616.582.581.008 1.145-.2 1.657-.382" style="fill:#f0b83d;fill-opacity:1;fill-rule:nonzero;stroke:none" transform="matrix(8.28833 0 0 -8.28833 -4026.71 670.799)"/><path d="M491.071 49.039c.152-.042.226-.052.291.107l.462 1.144c-.068.221-.104.244-.135.257l.024.06.509-.206.421-1.369.005-.001.296.731c.058.145.061.236-.128.33l.024.059.519-.209-.024-.06c-.183.048-.22-.002-.267-.118l-.574-1.421-.068.028-.545 1.742-.005.002-.39-.966c-.07-.174-.038-.24.133-.332l-.024-.06-.548.221.024.061M493.379 49.926l1.428-.464-.161-.498-.062.02c.057.371-.098.489-.432.598-.137.044-.184.048-.219-.057l-.187-.575c.237-.079.385-.056.522.239l.064-.021-.272-.837-.065.021c.071.319-.031.434-.276.514l-.194-.599c-.036-.109.002-.154.162-.206.243-.079.516-.097.794.226l.069-.022-.266-.483-1.448.47.02.062c.146-.031.225-.048.275.106l.389 1.197c.053.164-.049.203-.161.247l.02.062M497.287 48.795c-.09.013-.16-.035-.213-.122l-.859-1.41-.068.017-.153 1.285-.017.003-.736-1.08-.071.017-.185 1.651c-.015.132-.035.162-.137.202l.014.064.746-.172-.015-.064c-.093.014-.165.025-.187-.069a.259.259 0 0 1-.001-.088l.09-.985.005-.001.476.705-.033.264c-.02.063-.042.098-.162.131l.014.063.792-.182-.015-.064c-.111.018-.185.032-.205-.054-.007-.03 0-.096.003-.148l.077-.906.005-.002.48.797c.014.024.031.049.043.103.024.104-.064.127-.15.152l.015.063.462-.107-.015-.063M498.669 47.195c-.221-.183-.447-.313-.776-.261-.599.095-.856.568-.78 1.048.083.522.516.864 1.056.779.231-.037.41-.194.476-.205.069-.011.101.039.137.1l.07-.011-.096-.602-.064.011c-.055.237-.223.572-.516.619-.375.059-.538-.318-.607-.752-.024-.155-.047-.404.021-.583a.48.48 0 0 1 .356-.286c.2-.032.405.015.656.22l.067-.077M500.304 46.644l-.837.104.008.064c.162-.007.209-.01.219.075.008.069-.051.271-.077.358l-.581.071c-.095-.177-.149-.277-.155-.319-.012-.098.111-.121.199-.136l-.009-.065-.524.064.008.065c.143.003.189.086.29.27l.748 1.346.072-.009.409-1.43c.082-.29.113-.383.237-.393l-.007-.065zm-.713.707-.184.659-.32-.598.504-.061M501.583 47.807c-.034.185-.169.494-.475.516-.136.009-.284-.059-.296-.227-.01-.141.036-.201.247-.326l.368-.216a.537.537 0 0 0 .252-.498c-.016-.227-.204-.53-.682-.497-.247.018-.357.114-.438.12-.054.004-.071-.042-.084-.083l-.075.005.045.641.075-.005c.034-.266.164-.569.493-.593.312-.021.343.234.345.268.013.174-.105.245-.268.337l-.168.095c-.43.245-.414.468-.406.587.012.158.117.506.61.471.208-.014.324-.108.399-.113.06-.005.075.033.092.082l.078-.006-.039-.563-.073.005M503.01 46.5l-.928.033.002.065c.191.009.253.012.261.231l.048 1.37c-.182-.004-.451-.008-.518-.422l-.075.003.026.522 1.561-.055-.013-.523-.076.003c-.037.418-.305.441-.484.457l-.048-1.371c-.008-.22.055-.228.247-.247l-.003-.066M504.965 46.483h-1.504v.065c.146.018.224.026.224.184v1.26c0 .172-.107.177-.224.184v.066h.908v-.066c-.182-.007-.262-.01-.262-.239V46.71c0-.125.057-.146.231-.146.393 0 .539.216.658.509h.076l-.107-.59M505.019 48.246l1.499.078.028-.522-.065-.004c-.079.367-.268.422-.618.404-.143-.008-.189-.021-.184-.133l.032-.602c.25.01.379.084.401.409l.067.003.046-.878-.067-.003c-.048.323-.185.394-.442.38l.033-.628c.006-.115.057-.144.225-.134.255.012.517.094.66.495l.073.004-.076-.546-1.52-.079-.004.064c.148.024.228.036.22.197l-.067 1.257c-.008.172-.118.171-.238.173l-.003.065M508.934 48.479c-.14-.035-.197-.07-.179-.241l.087-.826c.016-.152.004-.387-.092-.514-.115-.154-.335-.227-.491-.242-.113-.012-.358-.022-.542.107-.121.087-.198.17-.228.449l-.091.865c-.023.218-.09.216-.237.216l-.007.064.875.092.007-.064c-.17-.026-.25-.037-.226-.265l.091-.864c.015-.148.053-.504.425-.465.456.047.42.444.402.609l-.083.79c-.016.158-.056.242-.28.23l-.007.064.569.059.007-.064M509.195 46.884c.151.043.22.072.194.242l-.194 1.218c-.172.155-.214.156-.247.15l-.011.065.543.086 1.066-.957.004.001-.123.779c-.024.154-.069.234-.279.217l-.01.064.552.087.01-.064c-.181-.052-.187-.114-.167-.237l.239-1.514-.072-.011-1.364 1.211-.005-.001.163-1.027c.029-.186.091-.226.284-.216l.01-.065-.583-.092-.01.064M511.957 47.331l-.891-.19-.014.064c.135.042.232.074.199.231l-.262 1.232c-.036.168-.157.148-.276.131l-.013.063.891.19.013-.064c-.118-.03-.24-.059-.203-.232l.262-1.232c.035-.163.138-.149.28-.129l.014-.064M513.296 47.68l-.898-.241-.016.063c.179.065.238.086.182.297l-.356 1.325c-.173-.057-.429-.14-.371-.555l-.073-.019-.127.507 1.508.404.14-.504-.073-.02c-.158.389-.42.332-.596.296l.355-1.325c.057-.214.119-.202.308-.165l.017-.063M513.25 49.492l1.419.488.171-.495-.061-.02c-.178.329-.373.331-.705.217-.136-.047-.177-.072-.141-.178l.197-.571c.237.079.341.186.273.504l.064.022.286-.832-.064-.022c-.136.297-.286.328-.53.244l.205-.595c.037-.109.094-.122.254-.067.241.083.471.234.498.659l.068.023.078-.546-1.44-.495-.02.061c.134.063.208.097.156.25l-.41 1.191c-.056.162-.162.131-.277.1l-.021.062M515.485 48.49c.15.067.166.157.127.244l-.522 1.173c-.064.145-.171.103-.268.071l-.027.06.726.322c.666.297 1.066-.02 1.229-.386.194-.438.103-.923-.487-1.209l-.752-.335-.026.06zm.51.421c.043-.095.083-.128.197-.078.266.119.408.364.155.932-.097.217-.376.699-.785.517-.153-.068-.124-.126-.098-.178l.531-1.193M495.203 71.032c.095.095.234.095.346.034.13-.104.226-.286.304-.433-.191.008-.46-.113-.633.034-.156.157-.347.209-.538.287-.008.026-.035.069 0 .095.052.069.139.069.234.069.096-.034.174-.164.287-.086M496.825 69.713c-.009-.026-.044-.035-.035-.061a.422.422 0 0 0 .252-.052c.095-.095.026-.208.026-.321-.052-.06-.148-.043-.2-.017-.087.043-.078.139-.147.191-.035-.035-.009-.139-.087-.121a1.612 1.612 0 0 0-.2.381c.044-.009.131-.069.2-.017a.28.28 0 0 0 .173.104c.035-.018.018-.061.018-.087" style="fill:#231f20;fill-opacity:1;fill-rule:nonzero;stroke:none" transform="matrix(8.28833 0 0 -8.28833 -4026.71 670.799)"/><path d="m495.624 70.711-.179-.022a.184.184 0 0 0-.156.06c-.015.013-.027.036-.047.048.023.003.038.007.056.028 0 0 .019-.099.127-.099.076 0 .112.08.112.08l.087-.095" style="fill:#fff;fill-opacity:1;fill-rule:nonzero;stroke:none" transform="matrix(8.28833 0 0 -8.28833 -4026.71 670.799)"/><path d="M511.668 69.73h.051c-.034-.112-.147-.234-.182-.364-.087-.026-.087.078-.104.13-.06-.078-.078-.191-.182-.234a.181.181 0 0 0-.182.052c.034.113-.078.304.095.338.043.009.087.026.139.018l.043-.035c.027.043-.034.104-.026.165.156.069.209-.217.348-.07" style="fill:#231f20;fill-opacity:1;fill-rule:nonzero;stroke:none" transform="matrix(8.28833 0 0 -8.28833 -4026.71 670.799)"/><path d="M512.47 70.721s.077-.041.135-.039c.056.002.15.016.201.065.016.012.029.034.049.047-.023.004-.038.008-.055.029 0 0-.022-.098-.131-.095-.075.003-.109.085-.109.085l-.09-.092" style="fill:#fff;fill-opacity:1;fill-rule:nonzero;stroke:none" transform="matrix(8.28833 0 0 -8.28833 -4026.71 670.799)"/><path d="M495.489 66.391c-.078.078-.191.121-.269.182a.682.682 0 0 0 .269-.182" style="fill:#bbbdbf;fill-opacity:1;fill-rule:nonzero;stroke:none" transform="matrix(8.28833 0 0 -8.28833 -4026.71 670.799)"/><path d="M494.587 72.125v-.087c-.659-.182-1.389-.703-1.588-1.405-.295-.833-.26-1.952.252-2.689.026-.165-.026-.27-.139-.348a.63.63 0 0 0-.529.052c-.043.009-.105 0-.105-.052.027-.199.261-.19.417-.234.278 0 .529.165.668.4.061-.088.008-.166 0-.252-.148-.313-.555-.156-.781-.269.104-.226.373-.121.547-.13.381.095.503.668.954.555-.373-.165-.191-.746-.685-.737-.122 0-.252.086-.347-.018a.58.58 0 0 1 .546-.147c.374.121.486.746.989.564.043-.018.078-.053.13-.053-.199 0-.416 0-.598-.13-.165-.147-.2-.477-.486-.451-.095-.043-.243.096-.269-.052.069-.13.347-.069.252-.269.208-.173.529-.069.754-.017l.018-.026c.121.035.234.087.364.096.199-.044.442-.079.538-.304l.026-.096c-.269.174-.677.278-.963.13-.234-.008-.381.044-.59.105-.052-.018-.052-.079-.017-.105.407-.52 1.535-.164 1.371-1.119-.062-.121-.148-.26-.278-.312a.677.677 0 0 1 .061.468c-.157.452-.651.443-.964.712a.097.097 0 0 1-.086-.043c-.035-.139.138-.191.217-.252.217-.113.529-.113.633-.417.009-.095.052-.242-.035-.321-.008.217-.199.469-.434.599a.936.936 0 0 0-.65.72c-.26.581-.954.642-1.302 1.154-.217.486.053.937.348 1.301 0 .044-.009.104-.061.104-.33-.139-.321-.607-.685-.702.173.372.121.962.615 1.084.018.035.044.061.035.113-.147.112-.312-.061-.451-.131-.07-.052-.121-.147-.199-.164.086.199.269.442.486.503.043.026.06.078.077.113-.086.078-.182 0-.277 0l-.408-.252c-.026.347.417.46.59.737-.139.061-.287-.095-.434-.147l-.199-.052c.008.087.121.182.182.269.139.086.304.121.451.182.018.052-.026.078-.052.113h-.087c.078.061.243.017.286.104-.112.087-.251.139-.398.095 0 .009.199.026.164.157-.043.034-.078.095-.13.112v.035c.217.052.39-.139.564-.217.026.017.035.052.035.087-.07.165-.243.234-.382.329.13.053.252-.095.382-.147.113.243-.226.286-.304.486.2.113.33-.182.503-.234.069.026.026.104.018.147-.079.147-.217.217-.304.364.182.044.269-.208.451-.277.035.052 0 .156-.043.217-.104.078-.157.208-.234.312.225.017.346-.217.529-.286.009.217-.243.381-.2.642.278-.009.295-.347.503-.452.035.217-.121.4-.147.617.086.052.182-.07.278-.105.103-.121.06-.442.286-.347-.07.191-.113.443.034.616.044-.191.113-.416.287-.546" style="fill:#f0b83d;fill-opacity:1;fill-rule:nonzero;stroke:none" transform="matrix(8.28833 0 0 -8.28833 -4026.71 670.799)"/><path d="M495.237 66.764c.009-.018-.043.008-.104 0-.165.043-.356-.026-.52-.105-.139-.069-.269-.19-.417-.147.261.147.451.546.885.364l.156-.112M494.63 65.02c.026-.122.026-.277-.095-.33a.225.225 0 0 0-.183-.052c-.034.191-.017.417.131.538.078-.008.112-.095.147-.156" style="fill:#f0b83d;fill-opacity:1;fill-rule:nonzero;stroke:none" transform="matrix(8.28833 0 0 -8.28833 -4026.71 670.799)"/><path d="M494.5 62.236c.442-.287.937-.521 1.483-.521.391-.121.85-.009 1.224.035a1.09 1.09 0 0 0-.773-.703c-.737-.113-1.492-.009-2.099.399-.252.225-.625.442-.503.842.078.095.069.346.234.294.13-.147.269-.277.434-.346" style="fill:#bbbdbf;fill-opacity:1;fill-rule:nonzero;stroke:none" transform="matrix(8.28833 0 0 -8.28833 -4026.71 670.799)"/><path d="m496.434 60.848.234.086c0-.156-.199-.269-.269-.417-.442-.277-1.014-.32-1.552-.216-.521.113-1.093.304-1.336.816-.087.242.052.477.191.668.711-.807 1.726-1.085 2.732-.937" style="fill:#bbbdbf;fill-opacity:1;fill-rule:nonzero;stroke:none" transform="matrix(8.28833 0 0 -8.28833 -4026.71 670.799)"/><path d="M495.654 60.084c.095.035.225.017.312.026.026.009.008.044.052.035h.052a1.023 1.023 0 0 0-.902-.634c-.659-.026-1.276.165-1.77.599-.087.165-.295.313-.217.538.078.095.053.234.165.321.582-.668 1.414-1.058 2.308-.885" style="fill:#bbbdbf;fill-opacity:1;fill-rule:nonzero;stroke:none" transform="matrix(8.28833 0 0 -8.28833 -4026.71 670.799)"/><path d="M493.077 60.266c.573-.746 1.449-1.015 2.36-.902-.191-.364-.555-.529-.954-.503-.573.008-1.224.268-1.519.815-.173.208.035.373.07.59h.043" style="fill:#bbbdbf;fill-opacity:1;fill-rule:nonzero;stroke:none" transform="matrix(8.28833 0 0 -8.28833 -4026.71 670.799)"/><path d="M494.864 58.679c-.173-.295-.442-.399-.746-.451-.581-.027-1.154.216-1.423.737-.069.217.044.443.105.651.407-.764 1.232-1.024 2.064-.937" style="fill:#bbbdbf;fill-opacity:1;fill-rule:nonzero;stroke:none" transform="matrix(8.28833 0 0 -8.28833 -4026.71 670.799)"/><path d="M494.3 58.063c-.182-.408-.65-.321-1.049-.304-.33.07-.677.312-.755.651.035.121 0 .278.087.382.381-.599 1.084-.807 1.717-.729" style="fill:#bbbdbf;fill-opacity:1;fill-rule:nonzero;stroke:none" transform="matrix(8.28833 0 0 -8.28833 -4026.71 670.799)"/><path d="M493.901 57.542c-.034-.104-.113-.225-.234-.251-.295-.113-.677-.078-.972.017-.103.07-.243.148-.286.269-.043.165-.008.338.035.486.338-.477.911-.547 1.457-.521M493.65 57.056a.331.331 0 0 0-.139-.268c-.234-.078-.573-.174-.833-.061-.121.026-.182.13-.252.217v.347c.339-.243.808-.295 1.224-.235M493.546 56.588c.009-.121-.009-.243-.131-.295-.268-.121-.589-.165-.832.043-.087.07-.052.191-.087.287.312-.147.72-.191 1.05-.035M493.563 56.042c.043-.122-.087-.174-.078-.286-.113-.079-.226-.183-.373-.166-.061.018-.156.026-.234.035-.07.156-.174.287-.2.46.269-.139.573-.069.851.017l.034-.06M493.797 55.322c.052-.235-.312-.148-.199-.339.139-.044.217.052.303.122v.034c.217-.043.373-.277.599-.251.035.017.017.06.017.095-.173.096-.364.208-.485.391-.036.069-.114.121-.114.199.521-.269 1.206-.173 1.631-.634.027-.086.096-.216.018-.303-.399-.355-.928-.164-1.388-.087-.46.182-.894.504-1.18.92a.61.61 0 0 1 .599.156c.121-.043.13-.2.199-.303M491.724 60.431l.017.018c-.095.225-.477.312-.329.615.181.208.407.044.65.07.199-.061.434-.035.633-.087-.086-.234-.372-.26-.52-.416.017-.191.303-.261.234-.486-.129.056-.542.24-.685.286M495.28 72.671a1.272 1.272 0 0 0-.095-.434c-.017-.034.035.087-.035.07-.051.026-.095-.035-.112-.07-.044.148.138.287.199.434h.043M495.671 72.255c.043-.122-.026-.234-.104-.321v.121h-.13c.06.07.13.191.234.2" style="fill:#bbbdbf;fill-opacity:1;fill-rule:nonzero;stroke:none" transform="matrix(8.28833 0 0 -8.28833 -4026.71 670.799)"/><path d="M491.013 64.309c-.044-.868.069-1.692.668-2.343a5.05 5.05 0 0 1 .685-.615c-.339-.026-.746.138-1.076-.07-.104-.113-.104-.295-.078-.433.13-.209.303-.331.512-.417.096-.007.519-.178.685-.286-.581.165-1.379.243-1.917-.079-.477-.286-.581-.832-.538-1.318.078-.451.339-.833.339-1.31-.27.4-.885.547-.99 1.076.009.295-.069.555-.216.781.052.234.104.477.156.719a.153.153 0 0 1-.052.148h-.018v.052c.139.391.417.824.885.85.156.191-.19.2-.251.339-.104.112-.13.251-.2.382.157.129.382.207.581.129.035-.017.07-.052.122-.043.087.043.035.113.017.165-.425.269-.546.815-.503 1.284.182.225 0 .581.113.867.017.035.06-.052.121-.017.122.33.26.659.434.972l.052.017c0-.044.017-.078.061-.104h.069l.469.486c.078-.399-.139-.798-.13-1.232M493.164 61.481l-.087-.217c.087.304-.425.685.07.824.121.078.182.208.234.33.112.286-.425.555 0 .72a.9.9 0 0 1 .217.954c-.052.043-.035.122-.087.164.165.113.295.261.434.417.017-1.18-.33-2.212-.781-3.192" style="fill:#f0b83d;fill-opacity:1;fill-rule:nonzero;stroke:none" transform="matrix(8.28833 0 0 -8.28833 -4026.71 670.799)"/><path d="M490.891 65.037c-.026-.581-.269-1.171-.069-1.787.043-.433.217-.806.407-1.179.018-.061-.017-.113-.069-.122-.139-.017-.156.139-.217.217-.39.876-.425 1.943-.104 2.871h.052M490.258 63.589v-.053c-.026 0-.061-.017-.07.018-.008.035 0 .069.035.087.009-.026.044-.009.035-.052M490.275 63.389c.096-.52.234-1.024.633-1.423.018-.052-.034-.095-.069-.112-.165.017-.243.199-.33.312-.216.365-.286.798-.321 1.24.035.035.053 0 .087-.017M490.223 60.7c0-.139-.139-.122-.2-.234-.381-.33-.494-.807-.563-1.284h-.035c-.095.659.174 1.232.685 1.57.052.017.078-.026.113-.052" style="fill:#231f20;fill-opacity:1;fill-rule:nonzero;stroke:none" transform="matrix(8.28833 0 0 -8.28833 -4026.71 670.799)"/><path d="M490.093 59.815c-.503-.668-.07-1.423.061-2.108-.096.017-.113.139-.148.217-.234.616-.537 1.509 0 2.09.087.07.148.183.252.217.182-.173-.13-.268-.165-.416" style="fill:#231f20;fill-opacity:1;fill-rule:nonzero;stroke:none" transform="matrix(8.28833 0 0 -8.28833 -4026.71 670.799)"/><path d="M501.249 65.645c-.026.026-.087.086-.069.147.026-.043.06-.095.069-.147M506.957 65.645c-.043.026-.009.095.035.13-.009-.044-.018-.095-.035-.13M496 59.182c.061-.278.174-.59.105-.885.026-.017.043-.043.077-.035.183.235.096.581.07.833.321-.39.356-.937.382-1.44.017-.043.052-.043.087-.026.181.209.017.503.069.763.26-.381.252-.936.217-1.37.026-.018.043-.052.078-.035a.363.363 0 0 1 .104.234c.087-.442.018-.945-.147-1.379.077 1.214-.746 2.247-1.726 2.906.017.121.138.269.268.33.026-.139-.069-.33.052-.417.209.2-.06.651.234.781l.13-.26M512.587 58.713c.095.13-.035.278.035.416.113-.077.225-.173.268-.303-.98-.694-1.804-1.7-1.726-2.941-.165.374-.234.911-.147 1.423.017-.104.034-.217.13-.269.147.087-.061.304.035.469 0 .33.025.693.251.954 0-.278-.095-.59.07-.79.043-.017.078.018.095.052-.061.486.052.998.338 1.388.017-.277-.13-.607.13-.789l.035.035c-.026.399 0 .833.252 1.136.269-.19-.009-.598.234-.781" style="fill:#bbbdbf;fill-opacity:1;fill-rule:nonzero;stroke:none" transform="matrix(8.28833 0 0 -8.28833 -4026.71 670.799)"/><path d="m497.675 58.245-.104.017c.104.087.277.052.399.148.148.13.199.303.338.451-.148-.252-.304-.59-.633-.616M498.056 58.063c-.104.112.104.165.148.277.009-.121-.121-.173-.148-.277M498.039 57.759c.174.165.321.399.417.633.008-.251-.226-.477-.417-.633M510.167 58.063c-.07.112-.156.217-.2.347.044-.139.312-.165.2-.347M510.418 58.028v-.069c-.026-.009-.034.017-.052.035v.069c.026.008.035-.018.052-.035M497.805 57.906c-.044.018 0 .07.017.105h.035l-.052-.105" style="fill:#fff;fill-opacity:1;fill-rule:nonzero;stroke:none" transform="matrix(8.28833 0 0 -8.28833 -4026.71 670.799)"/><path d="M498.766 64.929c.053-.025-.047.098-.044.163.003.064-.065-.135-.065-.135s.057-.002.109-.028" style="fill:#231f20;fill-opacity:1;fill-rule:evenodd;stroke:none" transform="matrix(8.28833 0 0 -8.28833 -4026.71 670.799)"/><path d="M501.734 75.23c.009-.477-.008-1.023-.017-1.474-.017-.035-.052-.018-.086-.018a15.466 15.466 0 0 0 0 1.553c.043 0 .103-.009.103-.061M496.304 68.881s.215-.022.29-.122c.076-.101.279-.412.543-.277 0 0 .079-.135-.165-.135-.235 0-.369.177-.436.294a.323.323 0 0 1-.214.17l-.018.07M511.849 68.898s-.075-.149-.195-.199c-.12-.05-.105-.129-.117-.148 0 0-.196-.195-.364-.195-.169 0-.146.024-.16.083-.014.06.059.076.101.051.042-.025.143-.084.286.109.142.193.37.32.449.299" style="fill:#fff;fill-opacity:1;fill-rule:evenodd;stroke:none" transform="matrix(8.28833 0 0 -8.28833 -4026.71 670.799)"/><path d="M499.627 63.667c.425-1.588-.191-3.08-.564-4.538.06.322.113.703.095 1.05-.191.556.209 1.076-.035 1.588.018.225-.103.443-.268.616-.018.39.051.824-.2 1.119-.139-.017-.321-.061-.434.034.096.4.235.773.356 1.154.529-.06.911-.555 1.05-1.023" style="fill:#f0b83d;fill-opacity:1;fill-rule:nonzero;stroke:none" transform="matrix(8.28833 0 0 -8.28833 -4026.71 670.799)"/><path d="M502.099 79.984c.061-.078.043-.208.018-.295a.226.226 0 0 0-.14-.087c.026.113.105.217.053.339-.096.112-.208.26-.365.26a.506.506 0 0 1-.355-.234c-.139-.217.086-.391.104-.564a.51.51 0 0 0-.234.234.545.545 0 0 0 .069.451c.191.104.425.269.651.13a.996.996 0 0 0 .199-.234" style="fill:#fff;fill-opacity:1;fill-rule:evenodd;stroke:none" transform="matrix(8.28833 0 0 -8.28833 -4026.71 670.799)"/><path d="m501.761 79.785-.044-.235c.017-.971.052-1.908.044-2.905-.044-.044-.052-.139-.13-.131-.009 1.206-.07 2.247-.018 3.34.061 0 .148.009.148-.069" style="fill:#fff;fill-opacity:1;fill-rule:evenodd;stroke:none" transform="matrix(8.28833 0 0 -8.28833 -4026.71 670.799)"/><path d="M492.392 59.078c-.069.156-.087.321-.2.451.217.104.451.33.451.598.018.165-.095.287-.147.434.139.148.347.243.468.434-.251-.616-.381-1.301-.572-1.917M492.244 58.175c-.052 0-.13.148-.199.2.087.078.199.208.269.321-.017-.173-.017-.364-.07-.521M510.436 57.612c.078-.113.078-.321.078-.469.113-1.457-.503-2.741-1.735-3.461-1.545-1.128-3.349-1.813-4.641-3.357l-.052-.017c-.729.936-1.796 1.535-2.741 2.159-.348.148-.643.382-.981.547-.208.156-.451.252-.65.434-1.241.702-2.048 1.813-2.022 3.244.069.252-.06.607.044.833.104.061.26-.044.39.017l.078.035c.017-.061-.061-.173.052-.234.139-.009.252.035.382.078-.156-1.475.572-2.742 1.839-3.418 1.249-.694 2.568-1.301 3.626-2.403.164-.009.164.182.269.26 1.206 1.171 2.767 1.657 4.06 2.646a3.29 3.29 0 0 1 1.127 2.95c.157 0 .347-.165.469 0l-.061.199a.423.423 0 0 1 .469-.043" style="fill:#f0b83d;fill-opacity:1;fill-rule:nonzero;stroke:none" transform="matrix(8.28833 0 0 -8.28833 -4026.71 670.799)"/><path d="M501.345 63.771s1.207.203 1.604.416V52.979s-.023-.067-.191.067c-.167.135-1.431.818-1.431.818l.018 9.907M505.227 64.187s.621-.24.958-.291c.335-.05.612-.086.642-.177v-9.881s-1.425-.795-1.588-.919l-.012 11.268M501.699 72.852l.013-4.781-.054-.426s-.053.718-.053 1.105v3.982s0 .12.094.12" style="fill:#fff;fill-opacity:1;fill-rule:nonzero;stroke:none" transform="matrix(8.28833 0 0 -8.28833 -4026.71 670.799)"/></svg>