<svg xmlns="http://www.w3.org/2000/svg" width="502.52728271484375px" height="1057.9720458984375px" x="0px" y="0px" style="enable-background:new 0 0 1400 980" viewBox="0 0 502.52728271484375 1057.9720458984375"><path fill="none" d="M0 0h502.527v1057.972H0z" style="fill:#45cdff;fill-opacity:0;pointer-events:none"/><path d="M-65.2-22.8h24L-60.7-8.7l7.7 24.3-20.3-14.1-20.3 14.1 7.7-24.3-19.5-14.1h24l8.1-23.1zM2.4-46l-8.1 23.1h-24l19.5 14.1-7.7 24.3 20.3-14 20.3 14.1L15-8.7l19.5-14.1h-24zm6.7 340.6c-39.2 25-69.7 9.9-85.4 0-29.4-18.6-52.8-8-60.7-.3v21.3c7.2-7.3 17-11.3 28.6-11.3 0 0 11.4-1.1 30.7 8.6 12.9 6.5 42.2 27.4 88.3 0 16-9.5 30.7-8.6 30.7-8.6 11.8 0 21.9 4.2 29.1 11.9v-21.4c-7.5-7.7-31.3-19.3-61.3-.2m0 27.4c-39.2 25-69.7 9.9-85.4 0-29.4-18.6-52.8-5.8-60.7 2v23.4c7.2-7.6 17-15.7 28.6-15.7 0 0 11.4-1.1 30.7 8.6 12.9 6.5 42.2 27.4 88.3 0 16-9.5 30.7-8.6 30.7-8.6 11.8 0 21.9 8.3 29.1 16v-23.5c-7.5-7.8-31.3-21.3-61.3-2.2m59.6-163.7c3.7-18.3-4.4-26.2-12.4-29.6 1.9-6.5-1.1-15.6-8.1-22.7-3.9-4-8.5-6.7-12.9-7.9 4.6-17.4-1.3-34.3-20.9-39.5-4.9-1.3-10.1-1.2-14.8 0-7.3-12.2-20.7-20.4-35.9-20.4-15 0-28.1 8-35.5 19.9-8.2-1.6-17.1.4-24.2 6-10.8 8.5-14.3 22.9-9.6 35.2-8.1.7-15.3 5-18.8 12.2-2.8 5.8-2.5 12.4 0 18.3-8.4 4.1-14.1 11.9-14.1 21 0 2.1.3 4.1.9 6.1-9.2 6-15.4 16.4-15.4 28.2 0 18.6 15.2 33.7 34.1 33.7 4.6 0 9-.9 13-2.6 5.6 10.8 16.9 18.2 29.9 18.2 7.1 0 13.7-2.4 19.1-6.2v45.4c-32.8-18.5-48-17.9-53.2-17.9-7.7-.4-21 3.2-26.8 9.3v21.3c6-6.2 20.7-10.6 31.9-10.1 5.9.3 18.6 2.9 31.8 10.5 19.3 11.1 34.2 13.2 34.2 13.2v-101c-5.5 7.1-16.1 11.9-28.1 11.9-15.6 0-28.5-7.9-31.6-18.5-1.9 2.2-4.5 4.1-7.5 5.2-8.7 3.2-18-.6-20.8-8.5-2.8-7.9 1.9-16.9 10.6-20.1 1-.4 2.1-.7 3.1-.8-5.7-5.3-8.2-12.3-5.6-17.8 2.6-5.7 9.8-8.3 17.7-7-2.7-3.1-4.2-6.9-4.2-11.1 0-10.3 9.6-18.7 21.5-18.7.9 0 1.7 0 2.6.1-3.6-3.9-5.8-9.2-5.8-15 0-12.1 9.6-21.9 21.4-21.9 3.2 0 6.3.7 9 2 1.5-10 10.6-17.6 21.5-17.6 11.1 0 20.3 7.9 21.6 18 3.1-1.9 6.8-2.6 10.6-2.6 11.8 0 21.4 10.1 21.4 22.6 0 5.7-1.8 10.7-5.1 14.6.7-.1 1.5-.1 2.2-.1 11.7 0 21.2 8.2 21.2 18.4 0 3.4-1 6.5-2.9 9.2 6.7-.1 12.9 3.7 15.1 10 1.8 5 .7 10.5-2.5 14.7.2 0 .4.1.7.1 8.7 1.6 14.6 9.8 13.1 18.5s-9.8 14.4-18.5 12.9c-4.6-.8-8.5-3.6-10.8-7.2-1.9 11.2-15 19.9-30.8 19.9-11.2 0-22.2-4.3-27.7-10.8v100.8s14.9-2.1 34.2-13.2c13.2-7.6 25.9-10.2 31.8-10.5 11.6-.5 26.4 3.6 31.9 10.2v-21.3c-5.5-6.6-18.9-9.8-26.8-9.4-5.1 0-20.5-.6-53.3 17.9v-45.4c3.4 1.9 8.7 4 12.8 4.4 14.1 1.3 29.1-5.5 36.1-16.9 22.8 6 40-8.8 43.3-25.1.5-2.4.7-4.7.8-7 .1-10.9-5.3-19.3-14.5-25.5M-50 381.6c0-3.8-.9-5.1-3.8-5.1H-56v14.2h2.2c2.9 0 3.8-1.3 3.8-5.1zm32.5 58.3c1.1 0 3-.1 4-.2v13.9c-1.8.3-3.8.4-5.8.4-12.7 0-25.6-6.8-29.9-18.2-2-5.3-1.6-11.9-1.6-11.9v-15.6c0-4-2-6-5-6h-.2v31.3h-13.6v-68.9h16.4c11.4 0 16.3 3.9 16.3 12.9v7.5c0 7.4-3.6 11.5-10.8 11.9v.4c8.2.5 10.8 3.8 10.8 12v14.5s-.4 15.7 19.4 16m-119.5-6.5h13.6v-31.1h11v-11.6h-11v-14.1h12.2V365H-137Zm49-51.5c0-2.7-.1-3.6-.7-4.5-.5-.8-1.4-1.2-2.5-1.2s-1.9.4-2.5 1.2c-.6.9-.7 1.8-.7 4.5v34.3c0 2.7.1 3.6.7 4.5.5.8 1.4 1.2 2.5 1.2s1.9-.4 2.5-1.2c.6-.9.7-1.8.7-4.5zm-3.1-17.9c6.1 0 10.5 1.9 13.2 5.2 2.7 3.4 3.6 8.2 3.6 15.6v28.4c0 7.4-.8 12.2-3.6 15.6-2.7 3.4-7.1 5.2-13.2 5.2s-10.5-1.9-13.2-5.2c-2.7-3.4-3.6-8.2-3.6-15.6v-28.4c0-7.4.8-12.2 3.6-15.6 2.7-3.3 7.1-5.2 13.2-5.2m130.9 1v11.6h8.5v56.8h13.5v-56.8h8.5V365Zm-52.7 16.3c0-2.1-.1-3-.6-3.7-.5-.7-1.2-1-2.2-1-1 0-1.7.3-2.2 1-.5.8-.6 1.6-.6 3.7v9.4h5.6zm-2.8-17.1c5.4 0 9.6 1.3 12.4 4 3 3 3.9 7.1 3.9 13v21.1h-19v14.9c0 2.1.1 2.9.6 3.6.5.7 1.2 1 2.2 1 1 0 1.7-.3 2.2-1 .5-.8.6-1.5.6-3.6v-7.9H.6v9.8c-.2 4.9-1.1 8.3-3.9 11-2.8 2.7-6.7 4-12.4 4s-9.5-1.3-12.3-4c-3-3-3.9-7.1-3.9-13v-35.8c0-5.9.8-10.1 3.9-13 2.8-2.9 6.8-4.1 12.3-4.1m42.5 29.5-1.8-1.1c-5.3-3.3-6.2-4.5-6.2-7.5V380c0-2.2.9-3.4 2.7-3.4 1.1 0 1.9.5 2.2 1.2.4.8.5 1.4.5 7.4v2.5h13.6v-3.3c0-8.4-.4-11.8-4-15.5-2.8-2.9-6.9-4.4-12.3-4.4-10.4 0-16.3 5.9-16.3 15.5v6.3c0 9.1 3.4 11.9 11.7 17l1.8 1.1c5.3 3.3 6.1 4.5 6.1 7.5v6.6c0 2.4-1.2 3.4-2.7 3.4-1.1 0-1.9-.5-2.2-1.2-.4-.9-.4-.6-.4-6.5v-4.8H5.9v4.8c0 8.4.4 11.8 4 15.5 2.8 2.9 6.9 4.4 12.3 4.4 10.4 0 16.3-5.9 16.3-15.5v-7.7c0-9.3-3.4-12-11.7-17.2" class="st0" style="fill:#c8102e" transform="matrix(2.09048 0 0 2.09048 322.126 104.119)"/></svg>