<svg xmlns="http://www.w3.org/2000/svg" width="391.1388854980469px" height="925.8970336914062px" x="0px" y="0px" style="enable-background:new 0 0 1400 980" viewBox="0 0 391.1388854980469 925.8970336914062"><path fill="none" d="M0 0h391.139v925.897H0z" style="fill:#000525;fill-opacity:0;pointer-events:none"/><path d="M25.37 146.592c-.602-.138-1.102-.495-1.506-1.071-2.028 3.117-2.877 5.879-2.109 8.37 3.081 10.46 12.311 18.165 23.321 19.193-10.544-3.206-18.35-14.161-19.706-26.492m-2.17-6.143c-.664-.495-1.232-.937-1.637-1.344-.698 2.63-1.04 5.391-.917 8.197.027.576.068 1.16.13 1.69.403-1.643 1.192-3.381 2.362-5.21-.22-1.018-.191-2.223.062-3.333zm.534-1.61c.253-.622.63-1.198 1.034-1.74a6.446 6.446 0 0 1 1.081-.931c1-4.675 3.081-8.813 6.164-11.975a26.96 26.96 0 0 0-9.943 13.268c.246.358.904.852 1.664 1.379zm39.599 24.05c-2.295-.268-5.342-.89-6.698-1.336-1.48-.541-2.808-1.787-3.534-3.341-.313-.672-.56-1.516-.63-2.581-.026-.624.042-1.294.221-2.05-8.368-2.541-17.25-6.101-23.419-9.393a7.822 7.822 0 0 1-.754 1.114c-.471.53-.978.934-1.505 1.152a33.67 33.67 0 0 0 5.19 14.558c3.773 5.833 8.902 9.84 14.449 11.085 1.985.453 4.531.987 6.86.495a27.119 27.119 0 0 0 18.859-15.578c-.412.08-.852.127-1.323.127-1.95 5.699-6.044 5.918-7.716 5.748zm11.27-17.77c-.124-2.98-.726-5.877-1.726-8.498-1.258-3.295-5.422-5.566-10.893-6.82-10.1-2.308-23.419 1.473-31.861 8.594.314 1.293.218 2.855-.22 4.278 6.109 3.255 14.956 6.815 23.33 9.353 1.985-4.505 5.73-5.395 8.688-4.634 2.11.533 3.466.793 4.438.979l1.096.226a5.369 5.369 0 0 1 3.341 2.581c.534.891 1.013 2.362.698 4.315 1.008-.049 1.505-.221 1.63-.357a26.238 26.238 0 0 0 1.48-10.017zm-4.778 10.374c.315-1.644-.042-2.8-.438-3.521-.507-.891-1.356-1.555-2.302-1.782l-1.041-.224a64.812 64.812 0 0 1-4.534-.973c-2.86-.71-5.318.576-6.67 3.514 1.383.402 2.769.76 4.081 1.117.235-1.027.29-1.782.29-1.782 0-.442.41-.802.848-.761.474 0 .823.404.787.85 0 .095-.06.89-.313 2.088.253.054.54.138.787.185.286.041.533.133.794.18.245-1.159.404-2.144.404-2.185a.771.771 0 0 1 .911-.664c.48.084.753.491.698.931 0 .09-.159 1.074-.412 2.233.568.13 1.097.21 1.576.308.185-1.03.219-1.782.219-1.822a.802.802 0 0 1 .883-.76c.432 0 .789.396.789.841 0 .05-.07.891-.256 1.96 1.13.178 2.076.267 2.899.267zM54.58 157.54c.667 1.383 1.768 2.185 2.617 2.45 1.068.358 3.938.979 6.294 1.247 2.615.27 4.662-1.159 5.826-4.096-.883-.046-1.82-.184-2.766-.312-.192.623-.411 1.203-.726 1.74-.219.354-.727.53-1.096.307-.417-.268-.547-.76-.316-1.156.185-.311.344-.706.495-1.112a15.977 15.977 0 0 1-1.55-.315c-.176.721-.37 1.343-.588 1.823a.821.821 0 0 1-1.067.453c-.412-.227-.602-.667-.412-1.117.159-.357.315-.89.466-1.467-.273-.047-.534-.13-.778-.185a6.458 6.458 0 0 0-.852-.17c-.156.436-.315.931-.534 1.465-.19.404-.672.583-1.075.404-.404-.178-.63-.623-.443-1.068.19-.405.312-.8.443-1.206-1.375-.357-2.8-.753-4.25-1.152a5.444 5.444 0 0 0 .312 3.467zm-27.039-20.481c-.377-.082-1.103-.043-1.821.721-1.137 1.244-1.67 2.937-1.583 4.984 0 .533.104.84.26 1.245.248.76.878 1.239 1.35 1.336.568.088 1.198-.226 1.766-.89 1.295-1.56 1.856-4.322 1.226-6.103-.287-.76-.691-1.198-1.198-1.293" style="fill:#11204b;fill-opacity:1;fill-rule:nonzero;stroke:none;stroke-width:.133333" transform="translate(-93.928 -1.964) scale(5.25606)"/><path d="M35.915 2.11c-10.571 0-13.065 5.43-13.065 5.43s12.188-.89 12.188 11.173c0 5.396-2.93 9.088-6.08 12.964-3.614 4.539-7.737 9.662-7.737 18.248 0 14.25 9.155 20.89 17.214 26.807 7.026 5.115 13.66 9.97 13.66 19.097 0 9.176-4.033 16.257-5.854 18.119-3.08 3.084-5.855 3.615-8.093 4.102-2.302.446-4.464.89-4.903 4.193-8.477 5.065-13.606 14.105-13.606 23.95 0 .399 0 .754.035 1.156.28 7.48 3.49 14.382 8.97 19.453 5.505 5.076 12.654 7.658 20.117 7.39a28.015 28.015 0 0 0 19.46-8.99c5.067-5.52 7.669-12.646 7.354-20.124-.43-11.403-7.675-21.283-18.404-25.2l.026.042-.159-.089-.252-.049c-1.354-.492-2.89-1.02-2.89-4.49 0-3.391 1.536-3.699 4.595-4.234 1.829-.355 4.027-.753 6.238-2.095 3.862-2.356 4.588-5.21 3.89-5.916-.974-.98-2.042 1.067-5.943 2.218-1.385.454-2.802.678-3.78.678-.782 0-1.384-.047-1.824-.136 2.042-3.835 4.344-6.992 4.378-7.04l.5-.665-.597-.623c-.786-.759-1.252-2.403-1.252-4.628 0-2.76.685-6.327 2.328-10.244 1.883-4.587 9.469-19.59 26.815-19.59h.971v-.973c0-6.237-.562-11.935-1.664-16.973l-.218-.974s-1.706.446-3.089.76c-.185.042-1.48.35-1.534.083-.067-.22.933-.76 1.315-.932 1.287-.623 2.959-1.341 2.959-1.341l-.248-.796c-1.231-4.32-2.463-6.367-2.52-6.456l-.41-.671-.726.225c-14.482 4.588-17.57 14.154-19.39 19.899-.912 2.808-1.48 4.37-2.495 4.37-2.956 0-5.435-2.5-6.23-3.295-9.025-8.998-8.334-15.495-7.3-25.335.384-3.479.788-7.388.788-11.895 0-11.352-4.28-16.604-13.538-16.604" style="fill:#fff;fill-opacity:1;fill-rule:nonzero;stroke:none;stroke-width:.133333" transform="translate(-93.928 -1.964) scale(5.25606)"/><path d="M35.915 2.11c-10.571 0-13.065 5.43-13.065 5.43s12.188-.89 12.188 11.173c0 5.396-2.93 9.088-6.08 12.964-3.614 4.539-7.737 9.662-7.737 18.248 0 14.25 9.155 20.89 17.214 26.807 7.026 5.115 13.66 9.97 13.66 19.097 0 9.176-4.033 16.257-5.854 18.119-3.08 3.084-5.855 3.615-8.093 4.102-2.302.446-4.464.89-4.903 4.193-8.477 5.065-13.606 14.105-13.606 23.95 0 .399 0 .754.035 1.156.28 7.48 3.49 14.382 8.97 19.453 5.505 5.076 12.654 7.658 20.117 7.39a28.015 28.015 0 0 0 19.46-8.99c5.067-5.52 7.669-12.646 7.354-20.124-.43-11.403-7.675-21.283-18.404-25.2l.026.042-.159-.089-.252-.049c-1.354-.492-2.89-1.02-2.89-4.49 0-3.391 1.536-3.699 4.595-4.234 1.829-.355 4.027-.753 6.238-2.095 3.862-2.356 4.588-5.21 3.89-5.916-.974-.98-2.042 1.067-5.943 2.218-1.385.454-2.802.678-3.78.678-.782 0-1.384-.047-1.824-.136 2.042-3.835 4.344-6.992 4.378-7.04l.5-.665-.597-.623c-.786-.759-1.252-2.403-1.252-4.628 0-2.76.685-6.327 2.328-10.244 1.883-4.587 9.469-19.59 26.815-19.59h.971v-.973c0-6.237-.562-11.935-1.664-16.973l-.218-.974s-1.706.446-3.089.76c-.185.042-1.48.35-1.534.083-.067-.22.933-.76 1.315-.932 1.287-.623 2.959-1.341 2.959-1.341l-.248-.796c-1.231-4.32-2.463-6.367-2.52-6.456l-.41-.671-.726.225c-14.482 4.588-17.57 14.154-19.39 19.899-.912 2.808-1.48 4.37-2.495 4.37-2.956 0-5.435-2.5-6.23-3.295-9.025-8.998-8.334-15.495-7.3-25.335.384-3.479.788-7.388.788-11.895 0-11.352-4.28-16.604-13.538-16.604" style="fill:none;stroke:#fff;stroke-width:.457333;stroke-linecap:butt;stroke-linejoin:miter;stroke-miterlimit:4;stroke-dasharray:none;stroke-opacity:1" transform="translate(-93.928 -1.964) scale(5.25606)"/><path d="M53.075 95.83c0 9.128-3.903 16.563-6.135 18.79-6.998 6.993-12.758 1.917-12.818 8.91-3.15 2.895-5.443 7.208-6.547 12.2.07 0 .123.042.192.042.657.13 1.225.492 1.67 1.068 8.841-7.212 22.502-10.998 32.922-8.636 3.302.755 6.11 1.96 8.244 3.823a27.236 27.236 0 0 0-13.877-11.258c-1.378-.492-3.807-1.029-3.807-5.477 0-8.329 9.093-1.878 15.083-10.917.302-.438-.13-.835-.48-.48-1.793 1.774-6.257 3.021-8.627 3.021-2.354 0-3.245-.535-3.245-.535 2.237-4.409 5.01-8.189 5.01-8.189-5.572-5.567 3.808-36.148 28.584-36.148 0-7.128-.753-12.653-1.672-16.79-.56.18-5.258 1.247-5.471.267-.19-.848 3.458-2.758 4.69-3.334-1.198-4.28-2.424-6.238-2.424-6.238C63.119 42.625 67.4 60.21 62.195 60.21c-3.362 0-6.003-2.622-6.948-3.56-12.69-12.682-6.767-21.097-6.767-37.936 0-11.393-4.417-15.618-12.565-15.618-8.12 0-11.051 3.513-11.051 3.513s11.175.356 11.175 12.105c0 12.25-13.82 15.634-13.82 31.212 0 25.918 30.856 25.424 30.856 45.904M38.373 18.713c0-1.512-.185-2.89-.472-4.093 0 0 2.424-.132 2.424-3.11 0-2.41-1.602-4.1-2.047-4.1-.349 0-.445.403-1.191.403-1.857 0-2.021-2.362-2.021-2.362.288-.042.568-.042.849-.042 5.321 0 10.236 1.596 10.236 13.304 0 4.322-.417 8.15-.758 11.539-.378 3.335-.693 6.457-.596 9.477 0 0-9.251-1.061-9.251-8.012 0-4.54 2.827-5.656 2.827-13.004zM25.37 146.592c-.602-.138-1.102-.495-1.506-1.071-2.028 3.117-2.877 5.879-2.109 8.37 3.081 10.46 12.311 18.165 23.321 19.193-10.544-3.206-18.35-14.161-19.706-26.492zm-2.17-6.143c-.664-.495-1.232-.937-1.637-1.344-.698 2.63-1.04 5.391-.917 8.197.027.576.068 1.16.13 1.69.403-1.643 1.192-3.381 2.362-5.21-.22-1.018-.191-2.223.062-3.333zm.534-1.61c.253-.622.63-1.198 1.034-1.74a6.446 6.446 0 0 1 1.081-.931c1-4.675 3.081-8.813 6.164-11.975a26.96 26.96 0 0 0-9.943 13.268c.246.358.904.852 1.664 1.379zm39.599 24.05c-2.295-.268-5.342-.89-6.698-1.336-1.48-.541-2.808-1.787-3.534-3.341-.313-.672-.56-1.522-.63-2.581-.026-.624.042-1.294.221-2.05-8.368-2.541-17.25-6.101-23.419-9.393a7.492 7.492 0 0 1-.754 1.11c-.471.534-.978.938-1.505 1.156a33.67 33.67 0 0 0 5.19 14.558c3.773 5.833 8.902 9.84 14.449 11.085 1.985.453 4.531.987 6.86.495a27.119 27.119 0 0 0 18.859-15.578c-.412.08-.852.127-1.323.127-1.95 5.699-6.044 5.918-7.716 5.748zm9.544-26.268c-1.258-3.295-5.422-5.566-10.893-6.82-10.1-2.308-23.419 1.465-31.861 8.594.314 1.293.218 2.855-.22 4.273 6.109 3.26 14.956 6.82 23.33 9.358 1.985-4.505 5.73-5.395 8.688-4.634 2.11.525 3.466.793 4.438.979l1.096.226a5.369 5.369 0 0 1 3.341 2.581c.534.891 1.013 2.362.698 4.315 1.008-.049 1.505-.221 1.63-.357a26.238 26.238 0 0 0 1.48-10.017c-.125-2.98-.727-5.877-1.727-8.498zM54.58 157.54c.667 1.383 1.768 2.185 2.617 2.45 1.068.358 3.938.979 6.294 1.247 2.615.27 4.662-1.159 5.826-4.096-.883-.046-1.82-.184-2.766-.312-.192.623-.411 1.203-.726 1.74-.219.354-.727.53-1.096.307-.417-.268-.547-.76-.316-1.156.185-.311.344-.706.495-1.112a15.977 15.977 0 0 1-1.55-.315c-.176.721-.37 1.343-.588 1.823a.821.821 0 0 1-1.067.453c-.412-.227-.602-.667-.412-1.117.159-.357.315-.89.466-1.467-.273-.047-.534-.13-.778-.185a6.458 6.458 0 0 0-.852-.17c-.156.436-.315.931-.534 1.465-.19.404-.672.583-1.075.404-.404-.178-.63-.623-.443-1.068.19-.405.312-.8.443-1.206-1.375-.357-2.8-.753-4.25-1.152a5.444 5.444 0 0 0 .312 3.467zm15.245-2.047c.315-1.644-.042-2.8-.438-3.521-.507-.891-1.356-1.555-2.302-1.782l-1.041-.224a64.812 64.812 0 0 1-4.534-.973c-2.86-.71-5.318.576-6.67 3.514 1.383.402 2.769.76 4.081 1.117.235-1.027.29-1.782.29-1.782 0-.442.41-.802.848-.761.474 0 .823.404.787.85 0 .095-.06.89-.313 2.088.253.054.54.138.787.185.286.041.533.133.794.18.245-1.159.404-2.144.404-2.185a.771.771 0 0 1 .911-.664c.48.084.753.491.698.931 0 .09-.159 1.074-.412 2.233.568.13 1.097.21 1.576.308.185-1.03.219-1.782.219-1.829a.8.8 0 0 1 .883-.753c.432 0 .789.396.789.841 0 .05-.07.891-.256 1.96 1.13.178 2.076.267 2.899.267zM27.54 137.059c-.377-.082-1.103-.043-1.821.721-1.137 1.244-1.67 2.937-1.583 4.984 0 .533.104.84.26 1.245.248.76.878 1.239 1.35 1.336.568.088 1.198-.226 1.766-.89 1.295-1.56 1.856-4.322 1.226-6.103-.287-.76-.691-1.198-1.198-1.293" style="fill:#11204b;fill-opacity:1;fill-rule:nonzero;stroke:none;stroke-width:.133333" transform="translate(-93.928 -1.964) scale(5.25606)"/></svg>