<svg xmlns="http://www.w3.org/2000/svg" width="168.5075" height="188.4227" viewBox="0 0 168.5075 188.4227"><path fill="#2dafe5" d="M168.497 6.076v-.011A565.488 565.488 0 0 0 84.248 0 565.48 565.48 0 0 0 0 6.065v.138L.002 76.37c.017 59.423 34.472 92.843 82.876 110.61l1.376.441.005.002 1.373-.443c48.406-17.767 82.857-51.187 82.875-110.61V6.076ZM84.254 90.458l-.017-.018.109.109Z"/><path fill="#7c2c3b" d="M162.679 11.894v-.01a526.474 526.474 0 0 0-78.43-5.647 526.468 526.468 0 0 0-78.43 5.646v.13l.003 66.495c.014 55.319 32.09 86.43 77.151 102.97l1.281.411.004.002 1.28-.413c45.062-16.54 77.133-47.651 77.15-102.97V11.894Z"/><path fill="#d6a93a" d="M122.963 151.369c1.242 1.243 3.23-.073 5.267-2.11 2.037-2.037 3.353-4.025 2.11-5.268L52.564 68.17c-1.242-1.243-3.463-1.035-4.96.462s-1.704 3.717-.462 4.96Z"/><path fill="#f8d742" d="m54.977 67.013 6.361-7.483s.6-.8-.334-1.937a86.721 86.721 0 0 0-7.373-7.343c-.71-.533-1.194-.403-1.982.353-3.894 3.734-13.805 13.312-14.401 13.933a2.472 2.472 0 0 0-.853 2.615c.24 1.335.95 3.553-.276 5.706l-6.697 10.54c-.839 1.285-1.083 2.423-.45 3.04.338.332 1.19.716 2.918-.484.828-.574 9.934-6.704 12.835-9.09 1.7-1.399 2.997-2.67 2.997-2.67l5.496-5.39s1.156-1.136 1.759-1.79"/><path fill="#d6a93a" d="M31.934 85.277c-1.902 1.289-1.896 1.477-1.63 1.442a4.592 4.592 0 0 0 1.587-.767c.827-.573 9.933-6.702 12.834-9.09a52.322 52.322 0 0 0 2.679-2.366 11.485 11.485 0 0 0-4.564 2.014c-1.555 1.299-8.185 6.923-10.906 8.767M54.976 67.013l6.362-7.483a1.354 1.354 0 0 0 .072-1.263s-.524-.592-2.358 1.547c-1.542 1.799-2.271 2.5-3.57 4.054a11.56 11.56 0 0 0-2.045 4.718 56.23 56.23 0 0 0 1.54-1.573M45.714 151.369c-1.24 1.243-3.229-.073-5.267-2.11-2.036-2.037-3.352-4.025-2.11-5.268l77.806-75.849c1.242-1.243 3.463-1.036 4.96.461 1.497 1.497 1.704 3.718.461 4.96Z"/><path fill="#f8d742" d="m44.958 150.621 72.594-74.55c1.243-1.243 1.036-3.463-.46-4.96a4.213 4.213 0 0 0-2.699-1.264l-76.056 74.144c-1.185 1.186-.041 3.05 1.835 4.987 1.866 1.762 3.643 2.789 4.786 1.643M113.73 66.983l-6.36-7.482s-.601-.8.332-1.937a86.807 86.807 0 0 1 7.374-7.344c.71-.532 1.195-.403 1.982.354 3.894 3.734 13.804 13.311 14.401 13.932a2.47 2.47 0 0 1 .853 2.616c-.24 1.334-.952 3.553.276 5.705l6.697 10.54c.838 1.286 1.083 2.423.45 3.041-.338.332-1.188.716-2.918-.485-.828-.573-9.933-6.703-12.835-9.09-1.7-1.398-2.997-2.67-2.997-2.67l-5.495-5.39s-1.157-1.135-1.76-1.79"/><path fill="#d6a93a" d="M136.773 85.248c1.901 1.288 1.896 1.477 1.63 1.441a4.586 4.586 0 0 1-1.587-.766c-.826-.573-9.932-6.703-12.834-9.09a52.083 52.083 0 0 1-2.679-2.366 11.488 11.488 0 0 1 4.565 2.013c1.553 1.3 8.183 6.923 10.905 8.768M113.73 66.983l-6.36-7.482a1.353 1.353 0 0 1-.073-1.264s.524-.592 2.358 1.548c1.542 1.798 2.272 2.5 3.57 4.054a11.562 11.562 0 0 1 2.045 4.718c-.364-.36-1.1-1.095-1.54-1.574M125.984 69.152a1.536 1.536 0 0 1-2.171 0l-3.259-3.26a1.535 1.535 0 0 1 2.171-2.17l3.259 3.26a1.534 1.534 0 0 1 0 2.17"/><path fill="#cda938" d="M120.992 65.892a1.533 1.533 0 0 1 .867-2.602 1.533 1.533 0 0 0-1.305 2.602l3.259 3.26a1.532 1.532 0 0 0 1.304.432 1.533 1.533 0 0 1-.866-.432Z"/><path fill="#d6a93a" d="M122.426 67.088a.166.166 0 0 1-.235-.235l1.494-1.494a.166.166 0 1 1 .235.234ZM122.919 67.585a.162.162 0 0 1-.231 0 .164.164 0 1 1 .231 0M121.893 66.56a.163.163 0 1 1 0-.231.164.164 0 0 1 0 .23M123.098 64.536l-.512-.512a.167.167 0 0 0-.235.235l.081.082a.082.082 0 0 1 .003.11l-1.323 1.323a.167.167 0 0 0 .235.236l1.328-1.328a.083.083 0 0 1 .105.007l.082.083a.167.167 0 0 0 .236-.236M125.833 67.294a.166.166 0 0 0-.232-.037l-.867.627a.088.088 0 0 1-.119-.008.09.09 0 0 1-.017-.104l.178-.356a.167.167 0 0 0-.019-.177l-.002-.001-.007-.009-.005-.005-.005-.005-.008-.007-.002-.002a.167.167 0 0 0-.177-.018l-.355.177a.09.09 0 0 1-.105-.017.092.092 0 0 1-.009-.119l.629-.867a.167.167 0 0 0-.037-.232.165.165 0 0 0-.231.037l-1.241 1.711a.166.166 0 0 0 .014.211l.007.009h.003a.163.163 0 0 0 .186.027l.608-.303a.09.09 0 0 1 .117.127l-.299.603a.166.166 0 0 0 .026.186l.002.002.007.007a.166.166 0 0 0 .213.014l1.71-1.24a.165.165 0 0 0 .037-.231"/><path fill="#f8d742" d="M54.754 70.306a3.862 3.862 0 0 0-2.764 1.18c-1.392 1.393-1.584 3.457-.43 4.612l31.08 31.848 5.29-5.288ZM130.34 143.99l-39.207-38.21a5.67 5.67 0 0 0-2.178 8.641l35.069 35.957c1.153 1.156 3-.068 4.896-1.96.32-.321.62-.64.893-.954 1.01-1.364 1.398-2.601.527-3.473M122.354 67.016a.166.166 0 0 1-.235-.235l1.494-1.494a.166.166 0 1 1 .235.234ZM122.847 67.513a.162.162 0 0 1-.23 0 .164.164 0 1 1 .23 0M121.821 66.487a.163.163 0 1 1 0-.23.164.164 0 0 1 0 .23M123.026 64.464l-.512-.513a.168.168 0 0 0-.235.001.165.165 0 0 0 0 .235l.081.082a.082.082 0 0 1 .003.11l-1.323 1.324a.167.167 0 0 0 .236.235l1.327-1.328a.083.083 0 0 1 .105.007l.083.082a.166.166 0 0 0 .235-.235M125.761 67.222a.166.166 0 0 0-.232-.037l-.866.627a.09.09 0 0 1-.136-.112l.177-.356a.167.167 0 0 0-.018-.176l-.003-.002-.007-.009-.005-.005-.005-.005-.008-.007-.002-.002a.167.167 0 0 0-.177-.018l-.355.177a.09.09 0 0 1-.105-.017.092.092 0 0 1-.009-.118l.629-.868a.167.167 0 0 0-.036-.232.165.165 0 0 0-.232.037l-1.241 1.712a.166.166 0 0 0 .014.21l.008.009.002.001a.163.163 0 0 0 .186.026l.609-.303a.09.09 0 0 1 .116.127l-.299.603a.165.165 0 0 0 .026.186l.002.003.008.006a.166.166 0 0 0 .212.015l1.711-1.24a.166.166 0 0 0 .036-.232"/><path fill="#d6a93a" d="M48.153 63.752a1.536 1.536 0 0 1 0 2.17l-3.26 3.26a1.535 1.535 0 0 1-2.17-2.172l3.259-3.258a1.534 1.534 0 0 1 2.17 0"/><path fill="#cda938" d="m42.996 67.284 3.26-3.259a1.534 1.534 0 0 1 2.024-.126 1.598 1.598 0 0 0-.127-.148 1.536 1.536 0 0 0-2.171 0l-3.26 3.26a1.535 1.535 0 0 0 .002 2.17 1.584 1.584 0 0 0 .145.126 1.533 1.533 0 0 1 .127-2.023"/><path fill="#d6a93a" d="M46.017 67.546a.166.166 0 1 1-.235.234l-1.494-1.494a.166.166 0 0 1 .234-.235ZM46.514 67.052a.163.163 0 1 1-.231 0 .164.164 0 0 1 .231 0M45.488 68.079a.163.163 0 0 1-.23.23.165.165 0 0 1-.001-.23.163.163 0 0 1 .231 0M43.465 66.874l-.512.51a.167.167 0 0 0 .235.237l.082-.082a.084.084 0 0 1 .111-.003l1.323 1.323a.166.166 0 0 0 .235-.236l-1.328-1.327a.082.082 0 0 1 .007-.105l.082-.082a.166.166 0 0 0-.235-.235M46.223 64.138a.166.166 0 0 0-.037.232l.628.866a.093.093 0 0 1-.008.12.091.091 0 0 1-.105.016l-.355-.176a.165.165 0 0 0-.177.018l-.003.003-.008.007-.004.004-.005.005-.008.009-.002.002a.165.165 0 0 0-.017.176l.176.355a.091.091 0 0 1-.136.114l-.867-.628a.166.166 0 1 0-.195.268l1.711 1.24a.167.167 0 0 0 .212-.014l.006-.007.004-.003a.165.165 0 0 0 .025-.185l-.302-.61a.09.09 0 0 1 .126-.116l.603.298a.166.166 0 0 0 .186-.024l.002-.003.007-.008a.165.165 0 0 0 .015-.21l-1.241-1.713a.166.166 0 0 0-.231-.036"/><path fill="#f8d742" d="M46.017 67.382a.166.166 0 1 1-.235.234l-1.494-1.494a.166.166 0 0 1 .234-.235ZM46.514 66.888a.163.163 0 1 1-.231 0 .164.164 0 0 1 .231 0M45.488 67.914a.163.163 0 1 1-.231 0 .164.164 0 0 1 .231 0M43.465 66.71l-.512.51a.166.166 0 0 0 .235.236l.082-.081a.084.084 0 0 1 .111-.004l1.323 1.324a.166.166 0 0 0 .235-.235l-1.328-1.328a.081.081 0 0 1 .007-.105l.082-.082a.167.167 0 0 0 0-.236.165.165 0 0 0-.235 0M46.223 63.974a.166.166 0 0 0-.037.232l.628.866a.093.093 0 0 1-.008.12.091.091 0 0 1-.105.016l-.355-.176a.165.165 0 0 0-.177.018l-.003.002-.008.007-.004.005-.005.005-.008.008-.002.004a.164.164 0 0 0-.017.175l.176.355a.092.092 0 0 1-.017.105.093.093 0 0 1-.119.01l-.867-.63a.166.166 0 1 0-.195.269l1.711 1.24a.167.167 0 0 0 .212-.013l.006-.008.004-.003a.166.166 0 0 0 .025-.185l-.302-.61a.091.091 0 0 1 .126-.116l.603.298a.166.166 0 0 0 .186-.025l.002-.002.007-.008a.165.165 0 0 0 .015-.211l-1.241-1.712a.165.165 0 0 0-.231-.036"/><path fill="#fff" d="M53.67 45.095a5.11 5.11 0 0 1-5.819-4.783l-.268-8.533c1.334-.105 2.002-.154 3.338-.25l.243 8.535a1.988 1.988 0 0 0 2.407 2.01l.492-.031a2.172 2.172 0 0 0 2.294-2.318l-.206-8.535c1.336-.08 2.005-.116 3.342-.186l.181 8.536a5.574 5.574 0 0 1-5.513 5.522l-.491.033M62.046 30.902c1.552-.073 2.328-.107 3.88-.168q2.617 4.21 5.197 8.442h.038l-.084-8.613c1.338-.037 2.007-.054 3.346-.081l.114 13.505c-1.528.031-2.291.05-3.819.095q-2.58-4.22-5.197-8.418l-.038.002.126 8.593c-1.322.054-1.984.083-3.305.146q-.13-6.75-.258-13.503M76.883 30.443c1.339-.02 2.008-.03 3.347-.04l.047 13.505c-1.323.011-1.985.02-3.308.04l-.086-13.505M86.965 33.226c-1.723-.01-2.584-.01-4.306-.003l-.005-2.834q5.993-.004 11.982.11l-.025 2.833a389.416 389.416 0 0 0-4.306-.076l-.055 10.672a368.283 368.283 0 0 0-3.309-.03l.024-10.672M97.06 30.55q4.532.135 9.061.33l-.053 2.833c-2.28-.106-3.42-.152-5.701-.23l-.034 2.456c1.858.063 2.786.1 4.643.182l-.05 2.833a373.51 373.51 0 0 0-4.632-.182l-.035 2.55c2.372.08 3.557.13 5.928.241-.02 1.133-.032 1.7-.053 2.833q-4.61-.203-9.222-.342l.147-13.505M108.663 30.98c2.14.108 3.21.169 5.347.303a7.035 7.035 0 0 1 6.829 7.216 6.476 6.476 0 0 1-7.172 6.285c-2.113-.133-3.17-.194-5.286-.302q.142-6.751.282-13.503m4.944 10.964c2.29.144 3.726-1.113 3.8-3.7.073-2.568-1.355-3.995-3.602-4.136a427.92 427.92 0 0 0-1.867-.113l-.186 7.837c.742.043 1.113.066 1.855.112M19.587 15.181c1.74-.22 2.61-.326 4.352-.53l2.343 11.502.047-.005 2.683-12.067c1.5-.16 2.25-.238 3.751-.387l2.615 11.52.047-.006q1.267-6.002 2.537-12.003c1.717-.153 2.576-.225 4.294-.363q-2.15 8.666-4.294 17.334c-2.014.179-3.02.273-5.033.473l-2.053-9.737-.048.005-2.051 10.16c-2.031.22-3.046.334-5.074.573q-2.057-8.235-4.116-16.469M128.895 13.082c1.87.161 2.804.246 4.671.424q1.852 5.464 3.699 10.93l.047.004q1.847-5.084 3.696-10.167c1.847.204 2.77.311 4.615.533l3.049 17.346a404.236 404.236 0 0 0-4.281-.522l-1.505-11.328-.048-.006-3.639 10.751a431.2 431.2 0 0 0-3.751-.387q-1.856-5.755-3.715-11.508l-.047-.005-1.318 11.035c-1.746-.155-2.618-.229-4.364-.369l2.892-16.73M43.914 12.745q5.728-.43 11.462-.757l-.207 3.571q-3.552.204-7.102.441v3.086c2.318-.16 3.477-.234 5.796-.368v3.56c-2.319.134-3.478.208-5.796.368v3.205q3.716-.258 7.435-.46v3.56q-5.798.33-11.588.765V12.745M74.914 14.88c-2.146.037-3.22.06-5.366.12v-3.56q7.448-.19 14.895-.191v3.56c-2.146-.004-3.22 0-5.367.018v13.41c-1.665.015-2.497.025-4.162.054V14.88M91.355 11.285c1.665.02 2.497.033 4.162.067v6.789q3.607.083 7.213.2v-6.788a406.3 406.3 0 0 1 4.16.162v16.971a421.958 421.958 0 0 0-4.16-.162v-6.646q-3.607-.118-7.213-.2v6.645a422.176 422.176 0 0 0-4.162-.068v-16.97M119.34 25.807a414.401 414.401 0 0 0-5.708-.355l-1.021 3.503c-1.71-.093-2.566-.135-4.277-.214q2.575-8.355 5.155-16.708c2.243.126 3.364.195 5.606.346q2.785 8.688 5.562 17.378a415.191 415.191 0 0 0-4.272-.318l-1.045-3.632m-2.865-9.728-1.869 6.106c1.505.088 2.257.134 3.761.234l-1.845-6.338-.047-.002M63.242 11.345c-3.098.11-6.61 2.018-6.633 5.502-.036 5.318 7.95 3.89 8.443 6.796.137.805-.769 1.48-1.916 1.478a11.538 11.538 0 0 1-5.565-1.314c-.085 1.466-.155 2.236-.212 3.567a10.047 10.047 0 0 0 5.674 1.52c2.987.077 6.58-1.994 6.61-5.487.045-5.278-7.872-4.083-8.446-6.827-.147-.703.711-1.395 1.993-1.469a9.628 9.628 0 0 1 4.438.815c.086-1.688.111-1.93.207-3.572a8.44 8.44 0 0 0-4.593-1.01M59.684 151.552l2.021.883-2.85 6.527 3.373 1.474-.757 1.732-5.395-2.356ZM69.665 155.114a4.559 4.559 0 0 1 3.327 5.685 4.714 4.714 0 0 1-9.092-2.497 4.559 4.559 0 0 1 5.765-3.188m-1.934 7.038a2.542 2.542 0 0 0 3.06-1.957 2.437 2.437 0 1 0-4.691-1.29 2.543 2.543 0 0 0 1.631 3.247M75.104 156.602l2.22.226 2.057 4.441a16.118 16.118 0 0 1 .596 1.607l.025.003s-.002-.976.055-1.54l.427-4.19 2.195.224-.913 8.967-2.208-.225-2.07-4.43a16.118 16.118 0 0 1-.597-1.607l-.025-.002s.002.976-.056 1.54l-.425 4.177-2.194-.224ZM84.234 157.397l3.198-.172c2.832-.153 4.734 1.399 4.886 4.231.153 2.833-1.57 4.617-4.402 4.77l-3.197.172Zm3.493 6.945a2.62 2.62 0 0 0-.282-5.224l-.906.049.281 5.224ZM97.028 155.807a4.56 4.56 0 0 1 5.593 3.48 4.715 4.715 0 1 1-9.21 2.027 4.56 4.56 0 0 1 3.617-5.507m1.568 7.129a2.543 2.543 0 0 0 1.797-3.158 2.437 2.437 0 1 0-4.753 1.045 2.543 2.543 0 0 0 2.956 2.113M102.528 154.596l2.069-.835 3.889 2.97a16.115 16.115 0 0 1 1.277 1.143l.023-.01s-.457-.861-.669-1.388l-1.575-3.903 2.045-.826 3.372 8.358-2.057.83-3.896-2.954a15.999 15.999 0 0 1-1.277-1.143l-.023.01s.457.861.669 1.388l1.57 3.892-2.045.825Z"/></svg>