<svg xmlns="http://www.w3.org/2000/svg" xml:space="preserve" style="enable-background:new 0 0 512 512" viewBox="0 0 512 512"><path fill="#231F20" d="M128 477.8 0 256 128 34.2h256L512 256 384 477.8z" class="st0"/><path fill="#FDB913" d="M152.6 435.1 49.2 256 152.6 76.9h206.8L462.8 256 359.4 435.1z" class="st1"/><path fill="#FFF" d="M154.8 431.4h202.5L458.5 256 357.2 80.6H154.8L53.5 256l101.3 175.4zm206.7 7.5h-211L44.9 256l1.1-1.9 104.5-181h211.1l1.1 1.9 104.5 181-105.7 182.9z" class="st2"/><path fill="#231F20" d="M226.3 172.4h59.2l31.6-79.3 85.5 173.8-92.5 54.7-29.7 97.3h-48.8L202 321.4l-92.6-54.5 85.4-173.8z" class="st0"/><path fill="#FFF" d="m238.5 279.4-43.6-46.8v46.8h43.6zm78.6-46.8v46.8h-43.7l43.7-46.8z" class="st2"/></svg>